<?xml version="1.0" encoding="utf-8"?>
<!-- Generator: Adobe Illustrator 18.1.0, SVG Export Plug-In . SVG Version: 6.00 Build 0)  -->
<svg version="1.1" id="Layer_1" xmlns="http://www.w3.org/2000/svg" xmlns:xlink="http://www.w3.org/1999/xlink" x="0px" y="0px"
	 viewBox="0 0 1160 646" enable-background="new 0 0 1160 646" xml:space="preserve">
<g>
	<g>
		<rect x="1" y="1" fill="#00B9E7" width="487.5" height="324"/>
		<path fill="#FFFFFF" d="M489.5,326H0V0h489.5V326z M2,324h485.5V2H2V324z"/>
	</g>
	<g>
		<rect x="1" y="325" fill="#00B9E7" width="487.5" height="319.4"/>
		<path fill="#FFFFFF" d="M489.5,645.3H0V324h489.5V645.3z M2,643.3h485.5V326H2V643.3z"/>
	</g>
	<g>
		<rect x="488.5" y="1" fill="#00B9E7" width="427.7" height="257.8"/>
		<path fill="#FFFFFF" d="M917.3,259.8H487.5V0h429.7V259.8z M489.5,257.8h425.7V2H489.5V257.8z"/>
	</g>
	<g>
		<rect x="916.2" y="1" fill="#00B9E7" width="242.7" height="257.8"/>
		<path fill="#FFFFFF" d="M1160,259.8H915.2V0H1160V259.8z M917.3,257.8H1158V2H917.3V257.8z"/>
	</g>
	<g>
		<rect x="488.5" y="258.8" fill="#00B9E7" width="376.6" height="162.2"/>
		<path fill="#FFFFFF" d="M866.1,422H487.5V257.8h378.6V422z M489.5,420h374.5V259.8H489.5V420z"/>
	</g>
	<g>
		<rect x="865.1" y="258.8" fill="#00B9E7" width="293.9" height="162.2"/>
		<path fill="#FFFFFF" d="M1160,422H864.1V257.8H1160V422z M866.1,420H1158V259.8H866.1V420z"/>
	</g>
	<g>
		<rect x="488.5" y="421" fill="#00B9E7" width="210.1" height="223.3"/>
		<path fill="#FFFFFF" d="M699.7,645.3H487.5V420h212.2V645.3z M489.5,643.3h208.1V422H489.5V643.3z"/>
	</g>
	<g>
		<rect x="698.7" y="421" fill="#00B9E7" width="250.2" height="113.1"/>
		<path fill="#FFFFFF" d="M949.9,535.2H697.7V420h252.2V535.2z M699.7,533.1h248.1V422H699.7V533.1z"/>
	</g>
	<g>
		<rect x="698.7" y="534.2" fill="#00B9E7" width="250.2" height="110.2"/>
		<path fill="#FFFFFF" d="M949.9,645.3H697.7V533.1h252.2V645.3z M699.7,643.3h248.1V535.2H699.7V643.3z"/>
	</g>
	<g>
		<rect x="948.8" y="421" fill="#00B9E7" width="210.1" height="124.1"/>
		<path fill="#FFFFFF" d="M1160,546.1H947.8V420H1160V546.1z M949.9,544.1H1158V422H949.9V544.1z"/>
	</g>
	<g>
		<rect x="948.8" y="545.1" fill="#00B9E7" width="210.1" height="99.3"/>
		<path fill="#FFFFFF" d="M1160,645.3H947.8V544.1H1160V645.3z M949.9,643.3H1158v-97.2H949.9V643.3z"/>
	</g>
	<g>
		<path fill="#FFFFFF" d="M16.5,359.1c2.7-2.3,6.2-4.5,8.6-6.6c1.2-1.1,2-2.2,2-3.7c0-2.3-1.4-3.9-3.9-3.9c-1.4,0-2.5,0.4-3.3,1.4
			c-0.9,1-1.3,2.4-1.4,4.4h-7c0-3.5,0.6-5.7,2.1-7.7c1.7-2.5,5-4.1,9.7-4.1c7.3,0,11.2,4.3,11.2,9.6c0,4.2-2.3,6.6-5,8.7
			c-2.7,2.2-5.9,4-8.1,6.3v0h13.1v6.1H11.1C11.2,364.5,13.5,361.6,16.5,359.1z"/>
		<path fill="#FFFFFF" d="M36.8,354.5c0-9.6,5.4-15.8,13.3-15.8c8.1,0,13.3,6.2,13.3,15.8c0,9.6-5.4,15.8-13.4,15.8
			C42.2,370.2,36.8,364.1,36.8,354.5z M55.8,354.5c0-5.9-1.6-10-5.7-10c-4,0-5.7,4.1-5.7,10c0,5.9,1.7,9.9,5.7,9.9
			C54.2,364.4,55.8,360.4,55.8,354.5z"/>
		<path fill="#FFFFFF" d="M65.9,362.1h7.5v7.4h-7.5V362.1z"/>
		<path fill="#FFFFFF" d="M76.6,362h7c0.4,1.5,1.7,2.9,4.2,2.9c1.7,0,3-0.5,3.9-1.7c1.1-1.3,1.6-3.3,1.7-6h-0.1
			c-1.5,1.7-3.6,2.9-6.7,2.9c-6.1,0-11-4.2-11-10.6c0-6.4,5.1-10.7,12.1-10.7c3.7,0,7,1.2,9.1,3.4c2.7,2.6,4,6.6,4,12.1
			c0,4.7-1,8.9-3.1,11.7c-2.2,2.8-5.3,4.3-9.7,4.3C81.6,370.2,77.5,366.9,76.6,362z M93.4,349.5c0-3-2.2-5.2-5.4-5.2
			c-3.1,0-5.3,2.2-5.3,5.2c0,3,2,5.2,5.3,5.2C91.1,354.7,93.4,352.5,93.4,349.5z"/>
		<path fill="#FFFFFF" d="M102.8,347.6c0-5.4,3.4-8.8,8.1-8.8c4.8,0,8.1,3.5,8.1,8.8c0,5.3-3.4,8.8-8.1,8.8
			C106.3,356.4,102.8,352.9,102.8,347.6z M113.5,347.6c0-2.9-0.8-5.1-2.6-5.1c-1.8,0-2.6,2.2-2.6,5.1c0,2.9,0.8,5,2.6,5
			C112.7,352.5,113.5,350.5,113.5,347.6z M127.1,339.3h4.1L115,369.5h-4.1L127.1,339.3z M123.2,361.4c0-5.3,3.4-8.8,8.1-8.8
			c4.8,0,8.1,3.4,8.1,8.8c0,5.4-3.4,8.8-8.1,8.8C126.6,370.3,123.2,366.8,123.2,361.4z M133.9,361.4c0-2.9-0.8-5.1-2.6-5.1
			c-1.9,0-2.6,2.1-2.6,5.1c0,2.9,0.7,5,2.6,5C133.1,366.4,133.9,364.4,133.9,361.4z"/>
		<path fill="#262626" d="M10.7,389.8c0-5.1,3.2-9,8.2-9c4.2,0,6.7,2.5,7.1,5.8h-3.5c-0.3-1.7-1.6-2.9-3.6-2.9c-3.2,0-4.7,2.6-4.7,6
			c0,3.5,1.8,6,4.7,6c2,0,3.5-1.2,3.7-3h3.4c-0.1,1.5-0.7,3-1.9,4.1c-1.2,1.1-2.8,1.8-5.2,1.8C14.2,398.7,10.7,395,10.7,389.8z"/>
		<path fill="#262626" d="M27,392.2c0-3.7,2.6-6.5,6.4-6.5s6.4,2.8,6.4,6.5s-2.6,6.5-6.4,6.5S27,395.9,27,392.2z M36.6,392.2
			c0-2.4-1.1-4-3.1-4c-2,0-3.1,1.6-3.1,4s1.1,4,3.1,4C35.5,396.2,36.6,394.6,36.6,392.2z"/>
		<path fill="#262626" d="M44.6,387.7L44.6,387.7c0.9-1.3,2-2,3.7-2c2.5,0,4.2,1.9,4.2,4.6v8h-3.3v-7.6c0-1.3-0.8-2.3-2.1-2.3
			c-1.4,0-2.5,1.2-2.5,2.8v7h-3.3V386h3.2V387.7z"/>
		<path fill="#262626" d="M53.8,394.3h3c0.2,1.4,1.2,2,2.7,2c1.4,0,2.3-0.6,2.3-1.4c0-1.2-1.6-1.3-3.2-1.6c-2.2-0.4-4.4-1-4.4-3.7
			c0-2.7,2.2-3.9,5-3.9c3.2,0,5,1.6,5.3,4.1h-3c-0.1-1.3-1-1.8-2.4-1.8c-1.3,0-2.1,0.5-2.1,1.4c0,1.1,1.6,1.2,3.4,1.5
			c2.1,0.4,4.3,1,4.3,3.9c0,2.5-2.1,4-5.2,4C56,398.7,54,397,53.8,394.3z"/>
		<path fill="#262626" d="M74,398.3v-1.4h-0.1c-0.8,1.1-1.8,1.8-3.5,1.8c-2.7,0-4.3-1.8-4.3-4.4V386h3.2v7.7c0,1.4,0.6,2.2,2,2.2
			c1.5,0,2.5-1.2,2.5-2.8V386h3.3v12.3H74z"/>
		<path fill="#262626" d="M79.3,381.2h3.3v17.2h-3.3V381.2z"/>
		<path fill="#262626" d="M84,386h1.7v-3.8h3.2v3.8H91v2.2h-2.1v6.5c0,0.9,0.5,1.2,1.2,1.2c0.4,0,1,0,1,0v2.4c0,0-0.7,0-2,0
			c-1.6,0-3.3-0.6-3.3-3v-7.2H84V386z"/>
		<path fill="#262626" d="M92.7,381.2H96v2.9h-3.3V381.2z M92.7,386H96v12.3h-3.3V386z"/>
		<path fill="#262626" d="M101.3,387.7L101.3,387.7c0.9-1.3,2-2,3.7-2c2.5,0,4.2,1.9,4.2,4.6v8H106v-7.6c0-1.3-0.8-2.3-2.1-2.3
			c-1.4,0-2.5,1.2-2.5,2.8v7h-3.3V386h3.2V387.7z"/>
		<path fill="#262626" d="M110.9,398.7h3.2c0.3,0.8,1,1.4,2.5,1.4c1.8,0,2.7-0.9,2.7-2.6v-1.3h-0.1c-0.7,0.8-1.7,1.4-3.2,1.4
			c-2.7,0-5.4-2.2-5.4-5.9c0-3.7,2.2-6,5.3-6c1.5,0,2.7,0.6,3.4,1.6h0V386h3.1v11.4c0,1.7-0.6,2.9-1.5,3.7c-1,1-2.6,1.4-4.4,1.4
			C113.3,402.5,111.2,401.1,110.9,398.7z M119.5,391.6c0-1.8-1-3.3-2.9-3.3c-1.7,0-2.8,1.3-2.8,3.4c0,2.1,1.1,3.3,2.8,3.3
			C118.7,395,119.5,393.5,119.5,391.6z"/>
	</g>
	<g>
		<path fill="#FFFFFF" d="M16.5,35.1c2.7-2.3,6.2-4.5,8.6-6.6c1.2-1.1,2-2.2,2-3.7c0-2.3-1.4-3.9-3.9-3.9c-1.4,0-2.5,0.4-3.3,1.4
			c-0.9,1-1.3,2.4-1.4,4.4h-7c0-3.5,0.6-5.7,2.1-7.7c1.7-2.5,5-4.1,9.7-4.1c7.3,0,11.2,4.3,11.2,9.6c0,4.2-2.3,6.6-5,8.7
			c-2.7,2.2-5.9,4-8.1,6.3v0h13.1v6.1H11.1C11.2,40.5,13.5,37.6,16.5,35.1z"/>
		<path fill="#FFFFFF" d="M43.3,26.3h-6.5v-5c4-0.1,7.3-2,8-6.1h5.9v30.4h-7.4V26.3z"/>
		<path fill="#FFFFFF" d="M55,38.2h7.5v7.4H55V38.2z"/>
		<path fill="#FFFFFF" d="M70.2,35.1c2.7-2.3,6.2-4.5,8.6-6.6c1.2-1.1,2-2.2,2-3.7c0-2.3-1.4-3.9-3.9-3.9c-1.4,0-2.5,0.4-3.3,1.4
			c-0.9,1-1.3,2.4-1.4,4.4h-7c0-3.5,0.6-5.7,2.1-7.7c1.7-2.5,5-4.1,9.7-4.1c7.3,0,11.2,4.3,11.2,9.6c0,4.2-2.3,6.6-5,8.7
			c-2.7,2.2-5.9,4-8.1,6.3v0h13.1v6.1H64.9C65,40.5,67.2,37.6,70.2,35.1z"/>
		<path fill="#FFFFFF" d="M90.4,23.6c0-5.4,3.4-8.8,8.1-8.8c4.8,0,8.1,3.5,8.1,8.8c0,5.3-3.4,8.8-8.1,8.8
			C93.8,32.4,90.4,28.9,90.4,23.6z M101.1,23.6c0-2.9-0.8-5.1-2.6-5.1c-1.8,0-2.6,2.2-2.6,5.1c0,2.9,0.8,5,2.6,5
			C100.3,28.6,101.1,26.6,101.1,23.6z M114.7,15.4h4.1l-16.3,30.2h-4.1L114.7,15.4z M110.7,37.5c0-5.3,3.4-8.8,8.1-8.8
			c4.8,0,8.1,3.4,8.1,8.8s-3.4,8.8-8.1,8.8C114.1,46.3,110.7,42.9,110.7,37.5z M121.4,37.5c0-2.9-0.8-5.1-2.6-5.1
			c-1.9,0-2.6,2.1-2.6,5.1s0.7,5,2.6,5C120.6,42.5,121.4,40.4,121.4,37.5z"/>
		<path fill="#262626" d="M11.5,57.2h12.3v3H15v4.1h7.5v3H15v7.1h-3.5V57.2z"/>
		<path fill="#262626" d="M25.5,57.2h3.3v2.9h-3.3V57.2z M25.5,62.1h3.3v12.3h-3.3V62.1z"/>
		<path fill="#262626" d="M34,63.7L34,63.7c0.9-1.3,2-2,3.7-2c2.5,0,4.2,1.9,4.2,4.6v8h-3.3v-7.6c0-1.3-0.8-2.3-2.1-2.3
			c-1.4,0-2.5,1.2-2.5,2.8v7h-3.3V62.1H34V63.7z"/>
		<path fill="#262626" d="M51.4,73L51.4,73c-0.7,0.9-1.6,1.7-3.7,1.7c-2.5,0-4.3-1.3-4.3-3.8c0-2.7,2.2-3.6,4.9-4c2-0.3,3-0.5,3-1.4
			c0-0.9-0.7-1.5-2.1-1.5c-1.5,0-2.3,0.6-2.4,1.7H44c0.1-2.2,1.7-4.1,5.3-4.1c3.7,0,5.2,1.7,5.2,4.5v6.3c0,0.9,0.1,1.5,0.4,1.7v0.1
			h-3.1C51.6,74.1,51.5,73.6,51.4,73z M51.4,70v-1.8c-0.6,0.3-1.5,0.5-2.3,0.7c-1.7,0.4-2.5,0.8-2.5,1.9c0,1.2,0.8,1.6,1.9,1.6
			C50.4,72.4,51.4,71.2,51.4,70z"/>
		<path fill="#262626" d="M59.7,63.7L59.7,63.7c0.9-1.3,2-2,3.7-2c2.5,0,4.2,1.9,4.2,4.6v8h-3.3v-7.6c0-1.3-0.8-2.3-2.1-2.3
			c-1.4,0-2.5,1.2-2.5,2.8v7h-3.3V62.1h3.2V63.7z"/>
		<path fill="#262626" d="M69.1,68.2c0-3.7,2.4-6.5,6.1-6.5c3.2,0,5.2,1.8,5.6,4.5h-3.2c-0.2-1.1-1.1-1.9-2.3-1.9c-2,0-3,1.5-3,3.9
			c0,2.3,0.9,3.9,2.9,3.9c1.3,0,2.3-0.7,2.5-2.1H81c-0.2,2.6-2.3,4.7-5.5,4.7C71.5,74.7,69.1,71.9,69.1,68.2z"/>
		<path fill="#262626" d="M82.4,57.2h3.3v2.9h-3.3V57.2z M82.4,62.1h3.3v12.3h-3.3V62.1z"/>
		<path fill="#262626" d="M95.1,73L95.1,73c-0.7,0.9-1.6,1.7-3.7,1.7c-2.5,0-4.3-1.3-4.3-3.8c0-2.7,2.2-3.6,4.9-4c2-0.3,3-0.5,3-1.4
			c0-0.9-0.7-1.5-2.1-1.5c-1.5,0-2.3,0.6-2.4,1.7h-2.9c0.1-2.2,1.7-4.1,5.3-4.1c3.7,0,5.2,1.7,5.2,4.5v6.3c0,0.9,0.1,1.5,0.4,1.7
			v0.1h-3.1C95.3,74.1,95.2,73.6,95.1,73z M95.2,70v-1.8c-0.6,0.3-1.5,0.5-2.3,0.7c-1.7,0.4-2.5,0.8-2.5,1.9c0,1.2,0.8,1.6,1.9,1.6
			C94.1,72.4,95.2,71.2,95.2,70z"/>
		<path fill="#262626" d="M100.3,57.2h3.3v17.2h-3.3V57.2z"/>
		<path fill="#262626" d="M107.9,70.4h3c0.2,1.4,1.2,2,2.7,2c1.4,0,2.3-0.6,2.3-1.4c0-1.2-1.6-1.3-3.2-1.6c-2.2-0.4-4.4-1-4.4-3.7
			c0-2.7,2.2-3.9,5-3.9c3.2,0,5,1.6,5.3,4.1h-3c-0.1-1.3-1-1.8-2.4-1.8c-1.3,0-2.1,0.5-2.1,1.4c0,1.1,1.6,1.2,3.4,1.5
			c2.1,0.4,4.3,1,4.3,3.9c0,2.5-2.1,4-5.2,4C110.1,74.7,108.1,73,107.9,70.4z"/>
		<path fill="#262626" d="M119.7,68.2c0-3.6,2.5-6.5,6.1-6.5c4,0,6.1,3,6.1,7.4h-8.9c0.2,1.9,1.3,3.1,3.1,3.1c1.3,0,2-0.6,2.4-1.5
			h3.2c-0.5,2.2-2.4,4-5.6,4C122,74.7,119.7,71.9,119.7,68.2z M123,66.9h5.5c-0.1-1.6-1.1-2.6-2.6-2.6
			C124.1,64.2,123.2,65.3,123,66.9z"/>
		<path fill="#262626" d="M136.5,64L136.5,64c0.8-1.4,1.7-2.1,3.1-2.1c0.4,0,0.6,0,0.8,0.1v2.9h-0.1c-2.1-0.2-3.7,0.9-3.7,3.5v6
			h-3.3V62.1h3.1V64z"/>
		<path fill="#262626" d="M140.8,62.1h3.3l2,6.4c0.4,1.2,0.6,2,0.6,2h0c0,0,0.2-0.8,0.5-2l2-6.4h3.3l-4.3,12.3H145L140.8,62.1z"/>
		<path fill="#262626" d="M153.6,57.2h3.3v2.9h-3.3V57.2z M153.6,62.1h3.3v12.3h-3.3V62.1z"/>
		<path fill="#262626" d="M158.3,68.2c0-3.7,2.4-6.5,6.1-6.5c3.2,0,5.2,1.8,5.6,4.5h-3.2c-0.2-1.1-1.1-1.9-2.3-1.9c-2,0-3,1.5-3,3.9
			c0,2.3,0.9,3.9,2.9,3.9c1.3,0,2.3-0.7,2.5-2.1h3.1c-0.2,2.6-2.3,4.7-5.5,4.7C160.8,74.7,158.3,71.9,158.3,68.2z"/>
		<path fill="#262626" d="M171,68.2c0-3.6,2.5-6.5,6.1-6.5c4,0,6.1,3,6.1,7.4h-8.9c0.2,1.9,1.3,3.1,3.1,3.1c1.3,0,2-0.6,2.4-1.5h3.2
			c-0.5,2.2-2.4,4-5.6,4C173.3,74.7,171,71.9,171,68.2z M174.3,66.9h5.5c-0.1-1.6-1.1-2.6-2.6-2.6C175.4,64.2,174.6,65.3,174.3,66.9
			z"/>
		<path fill="#262626" d="M183.9,70.4h3c0.2,1.4,1.2,2,2.7,2c1.4,0,2.3-0.6,2.3-1.4c0-1.2-1.6-1.3-3.2-1.6c-2.2-0.4-4.4-1-4.4-3.7
			c0-2.7,2.2-3.9,5-3.9c3.2,0,5,1.6,5.3,4.1h-3c-0.1-1.3-1-1.8-2.4-1.8c-1.3,0-2.1,0.5-2.1,1.4c0,1.1,1.6,1.2,3.4,1.5
			c2.1,0.4,4.3,1,4.3,3.9c0,2.5-2.1,4-5.2,4C186.1,74.7,184.1,73,183.9,70.4z"/>
	</g>
	<g>
		<path fill="#FFFFFF" d="M505.3,26.3h-6.5v-5c4-0.1,7.3-2,8-6.1h5.9v30.4h-7.4V26.3z"/>
		<path fill="#FFFFFF" d="M530.5,38.9h-14v-6.8l13.9-16.9h7.3v18.1h4.4v5.6h-4.4v6.7h-7.2V38.9z M530.5,33.3V22.9h-0.1L522,33.2v0.1
			H530.5z"/>
		<path fill="#FFFFFF" d="M544.2,38.2h7.5v7.4h-7.5V38.2z"/>
		<path fill="#FFFFFF" d="M554,37c0-3.4,2-6.1,5.2-7.5v-0.1c-2.6-1.3-4-3.3-4-6.1c0-5,4.4-8.4,11.4-8.4c7,0,11.3,3.2,11.3,8.3
			c0,2.6-1.5,4.7-4,6v0.1c3.3,1.3,5.2,4,5.2,7.5c0,5.9-5.1,9.5-12.5,9.5C559.1,46.3,554,42.7,554,37z M571.8,36.5
			c0-2.7-2-4.5-5.1-4.5c-3.1,0-5.3,1.8-5.3,4.5c0,2.6,2.1,4.3,5.2,4.3C569.6,40.8,571.8,39.1,571.8,36.5z M571,23.6
			c0-2.2-1.7-3.7-4.5-3.7s-4.4,1.5-4.4,3.7c0,2.2,1.7,3.7,4.4,3.7S571,25.7,571,23.6z"/>
		<path fill="#FFFFFF" d="M580.8,23.6c0-5.4,3.4-8.8,8.1-8.8c4.8,0,8.1,3.5,8.1,8.8c0,5.3-3.4,8.8-8.1,8.8
			C584.3,32.4,580.8,28.9,580.8,23.6z M591.5,23.6c0-2.9-0.8-5.1-2.6-5.1c-1.8,0-2.6,2.2-2.6,5.1c0,2.9,0.8,5,2.6,5
			C590.7,28.6,591.5,26.6,591.5,23.6z M605.1,15.4h4.1L593,45.6h-4.1L605.1,15.4z M601.2,37.5c0-5.3,3.4-8.8,8.1-8.8
			c4.8,0,8.1,3.4,8.1,8.8s-3.4,8.8-8.1,8.8C604.6,46.3,601.2,42.9,601.2,37.5z M611.9,37.5c0-2.9-0.8-5.1-2.6-5.1
			c-1.9,0-2.6,2.1-2.6,5.1s0.7,5,2.6,5C611.1,42.5,611.9,40.4,611.9,37.5z"/>
		<path fill="#262626" d="M498.1,57.2h13.8v2.9h-5.2v14.2h-3.5V60.1h-5.2V57.2z"/>
		<path fill="#262626" d="M512.8,68.2c0-3.6,2.5-6.5,6.1-6.5c4,0,6.1,3,6.1,7.4H516c0.2,1.9,1.3,3.1,3.1,3.1c1.3,0,2-0.6,2.4-1.5
			h3.2c-0.5,2.2-2.4,4-5.6,4C515.1,74.7,512.8,71.9,512.8,68.2z M516,66.9h5.5c-0.1-1.6-1.1-2.6-2.6-2.6
			C517.2,64.2,516.3,65.3,516,66.9z"/>
		<path fill="#262626" d="M525.8,68.2c0-3.7,2.4-6.5,6.1-6.5c3.2,0,5.2,1.8,5.6,4.5h-3.2c-0.2-1.1-1.1-1.9-2.3-1.9c-2,0-3,1.5-3,3.9
			c0,2.3,0.9,3.9,2.9,3.9c1.3,0,2.3-0.7,2.5-2.1h3.1c-0.2,2.6-2.3,4.7-5.5,4.7C528.3,74.7,525.8,71.9,525.8,68.2z"/>
		<path fill="#262626" d="M542.4,63.7L542.4,63.7c1-1.3,2-1.9,3.6-1.9c2.5,0,4.2,1.9,4.2,4.6v8H547v-7.6c0-1.3-0.8-2.3-2.1-2.3
			c-1.4,0-2.5,1.2-2.5,2.8v7h-3.3V57.2h3.3V63.7z"/>
		<path fill="#262626" d="M555.5,63.7L555.5,63.7c0.9-1.3,2-2,3.7-2c2.5,0,4.2,1.9,4.2,4.6v8h-3.3v-7.6c0-1.3-0.8-2.3-2.1-2.3
			c-1.4,0-2.5,1.2-2.5,2.8v7h-3.3V62.1h3.2V63.7z"/>
		<path fill="#262626" d="M564.9,68.2c0-3.7,2.6-6.5,6.4-6.5s6.4,2.8,6.4,6.5s-2.6,6.5-6.4,6.5S564.9,71.9,564.9,68.2z M574.4,68.2
			c0-2.4-1.1-4-3.1-4c-2,0-3.1,1.6-3.1,4s1.1,4,3.1,4C573.3,72.2,574.4,70.6,574.4,68.2z"/>
		<path fill="#262626" d="M579.3,57.2h3.3v17.2h-3.3V57.2z"/>
		<path fill="#262626" d="M584.1,68.2c0-3.7,2.6-6.5,6.4-6.5s6.4,2.8,6.4,6.5s-2.6,6.5-6.4,6.5S584.1,71.9,584.1,68.2z M593.7,68.2
			c0-2.4-1.1-4-3.1-4c-2,0-3.1,1.6-3.1,4s1.1,4,3.1,4C592.5,72.2,593.7,70.6,593.7,68.2z"/>
		<path fill="#262626" d="M598.1,74.7h3.2c0.3,0.8,1,1.4,2.5,1.4c1.8,0,2.7-0.9,2.7-2.6v-1.3h-0.1c-0.7,0.8-1.7,1.4-3.2,1.4
			c-2.7,0-5.4-2.2-5.4-5.9c0-3.7,2.2-6,5.3-6c1.5,0,2.7,0.6,3.4,1.6h0v-1.3h3.1v11.4c0,1.7-0.6,2.9-1.5,3.7c-1,1-2.6,1.4-4.4,1.4
			C600.5,78.6,598.5,77.1,598.1,74.7z M606.8,67.7c0-1.8-1-3.3-2.9-3.3c-1.7,0-2.8,1.3-2.8,3.4c0,2.1,1.1,3.3,2.8,3.3
			C605.9,71,606.8,69.5,606.8,67.7z"/>
		<path fill="#262626" d="M612.2,75.8h1.2c1.3,0,1.8-0.7,1.8-1.7c0-0.7-0.2-1.5-0.9-3.3l-3.3-8.8h3.4l1.8,5.5
			c0.4,1.1,0.8,2.7,0.8,2.7h0c0,0,0.3-1.6,0.7-2.7l1.7-5.5h3.3l-4.3,12.6c-0.9,2.7-1.8,3.7-4.3,3.7h-1.9V75.8z"/>
	</g>
	<g>
		<path fill="#FFFFFF" d="M926.2,37c0-3.4,2-6.1,5.2-7.5v-0.1c-2.6-1.3-4-3.3-4-6.1c0-5,4.4-8.4,11.4-8.4c7,0,11.3,3.2,11.3,8.3
			c0,2.6-1.5,4.7-4,6v0.1c3.3,1.3,5.2,4,5.2,7.5c0,5.9-5.1,9.5-12.5,9.5C931.4,46.3,926.2,42.7,926.2,37z M944,36.5
			c0-2.7-2-4.5-5.1-4.5c-3.1,0-5.3,1.8-5.3,4.5c0,2.6,2.1,4.3,5.2,4.3C941.9,40.8,944,39.1,944,36.5z M943.2,23.6
			c0-2.2-1.7-3.7-4.5-3.7s-4.4,1.5-4.4,3.7c0,2.2,1.7,3.7,4.4,3.7S943.2,25.7,943.2,23.6z"/>
		<path fill="#FFFFFF" d="M953.6,38.2h7.5v7.4h-7.5V38.2z"/>
		<path fill="#FFFFFF" d="M977.5,38.9h-14v-6.8l14-16.9h7.3v18.1h4.4v5.6h-4.4v6.7h-7.2V38.9z M977.5,33.3V22.9h-0.1L969,33.2v0.1
			H977.5z"/>
		<path fill="#FFFFFF" d="M990.7,23.6c0-5.4,3.4-8.8,8.1-8.8c4.8,0,8.1,3.5,8.1,8.8c0,5.3-3.4,8.8-8.1,8.8
			C994.1,32.4,990.7,28.9,990.7,23.6z M1001.4,23.6c0-2.9-0.8-5.1-2.6-5.1c-1.8,0-2.6,2.2-2.6,5.1c0,2.9,0.8,5,2.6,5
			C1000.6,28.6,1001.4,26.6,1001.4,23.6z M1015,15.4h4.1l-16.3,30.2h-4.1L1015,15.4z M1011,37.5c0-5.3,3.4-8.8,8.1-8.8
			c4.8,0,8.1,3.4,8.1,8.8s-3.4,8.8-8.1,8.8C1014.4,46.3,1011,42.9,1011,37.5z M1021.7,37.5c0-2.9-0.8-5.1-2.6-5.1
			c-1.9,0-2.6,2.1-2.6,5.1s0.7,5,2.6,5C1020.9,42.5,1021.7,40.4,1021.7,37.5z"/>
		<path fill="#262626" d="M926.7,57.2h4.9l2.4,8.6c0.6,2.2,1.1,4.6,1.1,4.6h0c0,0,0.5-2.5,1.1-4.6l2.4-8.6h5v17.2h-3.2v-9.8
			c0-1.4,0.1-3.6,0.1-3.6h0c0,0-0.4,2-0.7,3.3l-3,10.1h-3.3l-2.9-10.1c-0.4-1.2-0.7-3.3-0.7-3.3h0c0,0,0.1,2.2,0.1,3.6v9.8h-3.2
			V57.2z"/>
		<path fill="#262626" d="M953.3,73L953.3,73c-0.7,0.9-1.6,1.7-3.7,1.7c-2.5,0-4.3-1.3-4.3-3.8c0-2.7,2.2-3.6,4.9-4
			c2-0.3,3-0.5,3-1.4c0-0.9-0.7-1.5-2.1-1.5c-1.5,0-2.3,0.6-2.4,1.7h-2.9c0.1-2.2,1.7-4.1,5.3-4.1c3.7,0,5.2,1.7,5.2,4.5v6.3
			c0,0.9,0.1,1.5,0.4,1.7v0.1h-3.1C953.5,74.1,953.4,73.6,953.3,73z M953.4,70v-1.8c-0.6,0.3-1.5,0.5-2.3,0.7
			c-1.7,0.4-2.5,0.8-2.5,1.9c0,1.2,0.8,1.6,1.9,1.6C952.3,72.4,953.4,71.2,953.4,70z"/>
		<path fill="#262626" d="M961.7,63.7L961.7,63.7c0.9-1.3,2-2,3.7-2c2.5,0,4.2,1.9,4.2,4.6v8h-3.3v-7.6c0-1.3-0.8-2.3-2.1-2.3
			c-1.4,0-2.5,1.2-2.5,2.8v7h-3.3V62.1h3.2V63.7z"/>
		<path fill="#262626" d="M979.5,74.4v-1.4h-0.1c-0.8,1.1-1.8,1.8-3.5,1.8c-2.7,0-4.3-1.8-4.3-4.4v-8.2h3.2v7.7c0,1.4,0.6,2.2,2,2.2
			c1.5,0,2.5-1.2,2.5-2.8v-7.1h3.3v12.3H979.5z"/>
		<path fill="#262626" d="M984,62.1h1.7V61c0-3,2.3-4.1,5.5-3.7v2.5c-1.5-0.1-2.2,0.1-2.2,1.4v0.9h2.2v2.3h-2.2v10.1h-3.3V64.3H984
			V62.1z"/>
		<path fill="#262626" d="M1000,73L1000,73c-0.7,0.9-1.6,1.7-3.7,1.7c-2.5,0-4.3-1.3-4.3-3.8c0-2.7,2.2-3.6,4.9-4c2-0.3,3-0.5,3-1.4
			c0-0.9-0.7-1.5-2.1-1.5c-1.5,0-2.3,0.6-2.4,1.7h-2.9c0.1-2.2,1.7-4.1,5.3-4.1c3.7,0,5.2,1.7,5.2,4.5v6.3c0,0.9,0.1,1.5,0.4,1.7
			v0.1h-3.1C1000.2,74.1,1000.1,73.6,1000,73z M1000,70v-1.8c-0.6,0.3-1.5,0.5-2.3,0.7c-1.7,0.4-2.5,0.8-2.5,1.9
			c0,1.2,0.8,1.6,1.9,1.6C999,72.4,1000,71.2,1000,70z"/>
		<path fill="#262626" d="M1004.6,68.2c0-3.7,2.4-6.5,6.1-6.5c3.2,0,5.2,1.8,5.6,4.5h-3.2c-0.2-1.1-1.1-1.9-2.3-1.9
			c-2,0-3,1.5-3,3.9c0,2.3,0.9,3.9,2.9,3.9c1.3,0,2.3-0.7,2.5-2.1h3.1c-0.2,2.6-2.3,4.7-5.5,4.7C1007,74.7,1004.6,71.9,1004.6,68.2z
			"/>
		<path fill="#262626" d="M1017.1,62.1h1.7v-3.8h3.2v3.8h2.1v2.2h-2.1v6.5c0,0.9,0.5,1.2,1.2,1.2c0.4,0,1,0,1,0v2.4c0,0-0.7,0-2,0
			c-1.6,0-3.3-0.6-3.3-3v-7.2h-1.7V62.1z"/>
		<path fill="#262626" d="M1033.6,74.4v-1.4h-0.1c-0.8,1.1-1.8,1.8-3.5,1.8c-2.7,0-4.3-1.8-4.3-4.4v-8.2h3.2v7.7
			c0,1.4,0.6,2.2,2,2.2c1.5,0,2.5-1.2,2.5-2.8v-7.1h3.3v12.3H1033.6z"/>
		<path fill="#262626" d="M1042,64L1042,64c0.8-1.4,1.7-2.1,3.1-2.1c0.4,0,0.6,0,0.8,0.1v2.9h-0.1c-2.1-0.2-3.7,0.9-3.7,3.5v6h-3.3
			V62.1h3.1V64z"/>
		<path fill="#262626" d="M1047.2,57.2h3.3v2.9h-3.3V57.2z M1047.2,62.1h3.3v12.3h-3.3V62.1z"/>
		<path fill="#262626" d="M1055.8,63.7L1055.8,63.7c0.9-1.3,2-2,3.7-2c2.5,0,4.2,1.9,4.2,4.6v8h-3.3v-7.6c0-1.3-0.8-2.3-2.1-2.3
			c-1.4,0-2.5,1.2-2.5,2.8v7h-3.3V62.1h3.2V63.7z"/>
		<path fill="#262626" d="M1065.5,74.7h3.2c0.3,0.8,1,1.4,2.5,1.4c1.8,0,2.7-0.9,2.7-2.6v-1.3h-0.1c-0.7,0.8-1.7,1.4-3.2,1.4
			c-2.7,0-5.4-2.2-5.4-5.9c0-3.7,2.2-6,5.3-6c1.5,0,2.7,0.6,3.4,1.6h0v-1.3h3.1v11.4c0,1.7-0.6,2.9-1.5,3.7c-1,1-2.6,1.4-4.4,1.4
			C1067.9,78.6,1065.8,77.1,1065.5,74.7z M1074.1,67.7c0-1.8-1-3.3-2.9-3.3c-1.7,0-2.8,1.3-2.8,3.4c0,2.1,1.1,3.3,2.8,3.3
			C1073.2,71,1074.1,69.5,1074.1,67.7z"/>
	</g>
	<g>
		<path fill="#FFFFFF" d="M875.3,288.5c0-4.9,1.1-9.1,3.7-12.1c2.2-2.5,5.2-3.9,9.5-3.9c6.2,0,10.2,3.2,11.1,8.1h-7.1
			c-0.4-1.5-1.5-2.8-4-2.8c-3.7,0-5.7,2.8-5.9,7.6h0.1c1.6-1.7,3.7-2.9,6.9-2.9c5.8,0,10.9,4.2,10.9,10.7c0,6.4-5.1,10.7-12,10.7
			C879.7,304.1,875.4,297.5,875.3,288.5z M893.5,293.4c0-3-2.2-5.3-5.2-5.3c-3.2,0-5.2,2.2-5.2,5.3c0,3,2.2,5.1,5.2,5.1
			C891.3,298.5,893.5,296.3,893.5,293.4z"/>
		<path fill="#FFFFFF" d="M902.8,296h7.5v7.4h-7.5V296z"/>
		<path fill="#FFFFFF" d="M926.7,296.7h-14v-6.8l14-16.9h7.3V291h4.4v5.6h-4.4v6.7h-7.2V296.7z M926.7,291v-10.3h-0.1l-8.4,10.3v0.1
			H926.7z"/>
		<path fill="#FFFFFF" d="M939.9,281.4c0-5.4,3.4-8.8,8.1-8.8c4.8,0,8.1,3.5,8.1,8.8c0,5.3-3.4,8.8-8.1,8.8
			C943.3,290.2,939.9,286.7,939.9,281.4z M950.6,281.4c0-2.9-0.8-5.1-2.6-5.1c-1.8,0-2.6,2.2-2.6,5.1c0,2.9,0.8,5,2.6,5
			C949.8,286.4,950.6,284.3,950.6,281.4z M964.2,273.2h4.1l-16.3,30.2H948L964.2,273.2z M960.2,295.3c0-5.3,3.4-8.8,8.1-8.8
			c4.8,0,8.1,3.4,8.1,8.8s-3.4,8.8-8.1,8.8C963.7,304.1,960.2,300.6,960.2,295.3z M971,295.3c0-2.9-0.8-5.1-2.6-5.1
			c-1.9,0-2.6,2.1-2.6,5.1s0.7,5,2.6,5C970.2,300.3,971,298.2,971,295.3z"/>
		<path fill="#262626" d="M875.5,315h3.5v6.7h6.7V315h3.5v17.2h-3.5v-7.6H879v7.6h-3.5V315z"/>
		<path fill="#262626" d="M891,326c0-3.6,2.5-6.5,6.1-6.5c4,0,6.1,3,6.1,7.4h-8.9c0.2,1.9,1.3,3.1,3.1,3.1c1.3,0,2-0.6,2.4-1.5h3.2
			c-0.5,2.2-2.4,4-5.6,4C893.3,332.5,891,329.7,891,326z M894.3,324.7h5.5c-0.1-1.6-1.1-2.6-2.6-2.6
			C895.4,322,894.6,323.1,894.3,324.7z"/>
		<path fill="#262626" d="M912.1,330.8L912.1,330.8c-0.7,0.9-1.6,1.7-3.7,1.7c-2.5,0-4.3-1.3-4.3-3.8c0-2.7,2.2-3.6,4.9-4
			c2-0.3,3-0.5,3-1.4c0-0.9-0.7-1.5-2.1-1.5c-1.5,0-2.3,0.6-2.4,1.7h-2.9c0.1-2.2,1.7-4.1,5.3-4.1c3.7,0,5.2,1.7,5.2,4.5v6.3
			c0,0.9,0.1,1.5,0.4,1.7v0.1h-3.1C912.2,331.9,912.1,331.3,912.1,330.8z M912.1,327.8V326c-0.6,0.3-1.5,0.5-2.3,0.7
			c-1.7,0.4-2.5,0.8-2.5,1.9c0,1.2,0.8,1.6,1.9,1.6C911,330.2,912.1,329,912.1,327.8z"/>
		<path fill="#262626" d="M917.3,315h3.3v17.2h-3.3V315z"/>
		<path fill="#262626" d="M922,319.8h1.7V316h3.2v3.8h2.1v2.2h-2.1v6.5c0,0.9,0.5,1.2,1.2,1.2c0.4,0,1,0,1,0v2.4c0,0-0.7,0-2,0
			c-1.6,0-3.3-0.6-3.3-3V322H922V319.8z"/>
		<path fill="#262626" d="M933.9,321.4L933.9,321.4c1-1.3,2-1.9,3.6-1.9c2.5,0,4.2,1.9,4.2,4.6v8h-3.3v-7.6c0-1.3-0.8-2.3-2.1-2.3
			c-1.4,0-2.5,1.2-2.5,2.8v7h-3.3V315h3.3V321.4z"/>
		<path fill="#262626" d="M946.1,326c0-3.7,2.4-6.5,6.1-6.5c3.2,0,5.2,1.8,5.6,4.5h-3.2c-0.2-1.1-1.1-1.9-2.3-1.9c-2,0-3,1.5-3,3.9
			c0,2.3,0.9,3.9,2.9,3.9c1.3,0,2.3-0.7,2.5-2.1h3.1c-0.2,2.6-2.3,4.7-5.5,4.7C948.5,332.5,946.1,329.7,946.1,326z"/>
		<path fill="#262626" d="M966.7,330.8L966.7,330.8c-0.7,0.9-1.6,1.7-3.7,1.7c-2.5,0-4.3-1.3-4.3-3.8c0-2.7,2.2-3.6,4.9-4
			c2-0.3,3-0.5,3-1.4c0-0.9-0.7-1.5-2.1-1.5c-1.5,0-2.3,0.6-2.4,1.7h-2.9c0.1-2.2,1.7-4.1,5.3-4.1c3.7,0,5.2,1.7,5.2,4.5v6.3
			c0,0.9,0.1,1.5,0.4,1.7v0.1h-3.1C966.9,331.9,966.8,331.3,966.7,330.8z M966.8,327.8V326c-0.6,0.3-1.5,0.5-2.3,0.7
			c-1.7,0.4-2.5,0.8-2.5,1.9c0,1.2,0.8,1.6,1.9,1.6C965.7,330.2,966.8,329,966.8,327.8z"/>
		<path fill="#262626" d="M975,321.8L975,321.8c0.8-1.4,1.7-2.1,3.1-2.1c0.4,0,0.6,0,0.8,0.1v2.9h-0.1c-2.1-0.2-3.7,0.9-3.7,3.5v6
			h-3.3v-12.3h3.1V321.8z"/>
		<path fill="#262626" d="M979.7,326c0-3.6,2.5-6.5,6.1-6.5c4,0,6.1,3,6.1,7.4h-8.9c0.2,1.9,1.3,3.1,3.1,3.1c1.3,0,2-0.6,2.4-1.5
			h3.2c-0.5,2.2-2.4,4-5.6,4C982,332.5,979.7,329.7,979.7,326z M983,324.7h5.5c-0.1-1.6-1.1-2.6-2.6-2.6
			C984.1,322,983.3,323.1,983,324.7z"/>
	</g>
	<g>
		<path fill="#FFFFFF" d="M498.5,294.7c0-3.4,2-6.1,5.2-7.5v-0.1c-2.6-1.3-4-3.3-4-6.1c0-5,4.4-8.4,11.4-8.4c7,0,11.3,3.2,11.3,8.3
			c0,2.6-1.5,4.7-4,6v0.1c3.3,1.3,5.2,4,5.2,7.5c0,5.9-5.1,9.5-12.5,9.5C503.6,304.1,498.5,300.4,498.5,294.7z M516.3,294.2
			c0-2.7-2-4.5-5.1-4.5c-3.1,0-5.3,1.8-5.3,4.5c0,2.6,2.1,4.3,5.2,4.3C514.2,298.6,516.3,296.8,516.3,294.2z M515.5,281.3
			c0-2.2-1.7-3.7-4.5-3.7s-4.4,1.5-4.4,3.7c0,2.2,1.7,3.7,4.4,3.7S515.5,283.5,515.5,281.3z"/>
		<path fill="#FFFFFF" d="M525.9,296h7.5v7.4h-7.5V296z"/>
		<path fill="#FFFFFF" d="M541.1,292.9c2.7-2.3,6.2-4.5,8.6-6.6c1.2-1.1,2-2.2,2-3.7c0-2.3-1.4-3.9-3.9-3.9c-1.4,0-2.5,0.4-3.3,1.4
			c-0.9,1-1.3,2.4-1.4,4.4h-7c0-3.5,0.6-5.7,2.1-7.7c1.7-2.5,5-4.1,9.7-4.1c7.3,0,11.2,4.3,11.2,9.6c0,4.2-2.3,6.6-5,8.7
			c-2.7,2.2-5.9,4-8.1,6.3v0h13.1v6.1h-23.4C535.9,298.3,538.1,295.4,541.1,292.9z"/>
		<path fill="#FFFFFF" d="M561.2,281.4c0-5.4,3.4-8.8,8.1-8.8c4.8,0,8.1,3.5,8.1,8.8c0,5.3-3.4,8.8-8.1,8.8
			C564.7,290.2,561.2,286.7,561.2,281.4z M571.9,281.4c0-2.9-0.8-5.1-2.6-5.1c-1.8,0-2.6,2.2-2.6,5.1c0,2.9,0.8,5,2.6,5
			C571.1,286.4,571.9,284.3,571.9,281.4z M585.5,273.2h4.1l-16.3,30.2h-4.1L585.5,273.2z M581.6,295.3c0-5.3,3.4-8.8,8.1-8.8
			c4.8,0,8.1,3.4,8.1,8.8s-3.4,8.8-8.1,8.8C585,304.1,581.6,300.6,581.6,295.3z M592.3,295.3c0-2.9-0.8-5.1-2.6-5.1
			c-1.9,0-2.6,2.1-2.6,5.1s0.7,5,2.6,5C591.5,300.3,592.3,298.2,592.3,295.3z"/>
		<path fill="#262626" d="M498.2,323.6c0-5.1,3.2-9,8.2-9c4.2,0,6.7,2.5,7.1,5.8h-3.5c-0.3-1.7-1.6-2.9-3.6-2.9
			c-3.2,0-4.7,2.6-4.7,6c0,3.5,1.8,6,4.7,6c2,0,3.5-1.2,3.7-3h3.4c-0.1,1.5-0.7,3-1.9,4.1c-1.2,1.1-2.8,1.8-5.2,1.8
			C501.7,332.5,498.2,328.8,498.2,323.6z"/>
		<path fill="#262626" d="M514.5,326c0-3.7,2.6-6.5,6.4-6.5s6.4,2.8,6.4,6.5c0,3.7-2.6,6.5-6.4,6.5S514.5,329.7,514.5,326z
			 M524.1,326c0-2.4-1.1-4-3.1-4c-2,0-3.1,1.6-3.1,4s1.1,4,3.1,4C523,330,524.1,328.4,524.1,326z"/>
		<path fill="#262626" d="M532.1,321.5L532.1,321.5c0.9-1.3,2-2,3.7-2c2.5,0,4.2,1.9,4.2,4.6v8h-3.3v-7.6c0-1.3-0.8-2.3-2.1-2.3
			c-1.4,0-2.5,1.2-2.5,2.8v7h-3.3v-12.3h3.2V321.5z"/>
		<path fill="#262626" d="M541.3,328.2h3c0.2,1.4,1.2,2,2.7,2c1.4,0,2.3-0.6,2.3-1.4c0-1.2-1.6-1.3-3.2-1.6c-2.2-0.4-4.4-1-4.4-3.7
			c0-2.7,2.2-3.9,5-3.9c3.2,0,5,1.6,5.3,4.1h-3c-0.1-1.3-1-1.8-2.4-1.8c-1.3,0-2.1,0.5-2.1,1.4c0,1.1,1.6,1.2,3.4,1.5
			c2.1,0.4,4.3,1,4.3,3.9c0,2.5-2.1,4-5.2,4C543.5,332.5,541.5,330.8,541.3,328.2z"/>
		<path fill="#262626" d="M561.5,332.2v-1.4h-0.1c-0.8,1.1-1.8,1.8-3.5,1.8c-2.7,0-4.3-1.8-4.3-4.4v-8.2h3.2v7.7
			c0,1.4,0.6,2.2,2,2.2c1.5,0,2.5-1.2,2.5-2.8v-7.1h3.3v12.3H561.5z"/>
		<path fill="#262626" d="M566.8,319.8h3.1v1.7h0.1c0.7-1.1,1.9-2,3.6-2c1.6,0,2.8,0.9,3.4,2.2h0c0.8-1.3,2.1-2.2,3.7-2.2
			c2.6,0,4.1,1.7,4.1,4.4v8.3h-3.3v-7.7c0-1.4-0.7-2.1-1.9-2.1c-1.4,0-2.2,1.1-2.2,2.7v7.2h-3.3v-7.7c0-1.4-0.7-2.1-1.9-2.1
			c-1.3,0-2.2,1.1-2.2,2.7v7.2h-3.3V319.8z"/>
		<path fill="#262626" d="M586.2,326c0-3.6,2.5-6.5,6.1-6.5c4,0,6.1,3,6.1,7.4h-8.9c0.2,1.9,1.3,3.1,3.1,3.1c1.3,0,2-0.6,2.4-1.5
			h3.2c-0.5,2.2-2.4,4-5.6,4C588.5,332.5,586.2,329.7,586.2,326z M589.4,324.7h5.5c-0.1-1.6-1.1-2.6-2.6-2.6
			C590.6,322,589.7,323.1,589.4,324.7z"/>
		<path fill="#262626" d="M603,321.8L603,321.8c0.8-1.4,1.7-2.1,3.1-2.1c0.4,0,0.6,0,0.8,0.1v2.9h-0.1c-2.1-0.2-3.7,0.9-3.7,3.5v6
			h-3.3v-12.3h3.1V321.8z"/>
		<path fill="#262626" d="M611.1,319.8h3.1v1.5h0.1c0.8-1.1,1.9-1.9,3.6-1.9c3.3,0,5.4,2.7,5.4,6.5c0,4-2.2,6.5-5.3,6.5
			c-1.7,0-2.9-0.7-3.6-1.8h0v5.4h-3.3V319.8z M620,326.1c0-2.3-0.8-4-2.8-4c-2,0-2.9,1.8-2.9,4c0,2.2,1,3.7,3,3.7
			C619,329.8,620,328.4,620,326.1z"/>
		<path fill="#262626" d="M628,321.8L628,321.8c0.8-1.4,1.7-2.1,3.1-2.1c0.4,0,0.6,0,0.8,0.1v2.9h-0.1c-2.1-0.2-3.7,0.9-3.7,3.5v6
			h-3.3v-12.3h3.1V321.8z"/>
		<path fill="#262626" d="M632.7,326c0-3.7,2.6-6.5,6.4-6.5s6.4,2.8,6.4,6.5c0,3.7-2.6,6.5-6.4,6.5S632.7,329.7,632.7,326z
			 M642.2,326c0-2.4-1.1-4-3.1-4c-2,0-3.1,1.6-3.1,4s1.1,4,3.1,4C641.1,330,642.2,328.4,642.2,326z"/>
		<path fill="#262626" d="M646.4,326c0-3.8,2.2-6.5,5.3-6.5c1.7,0,2.8,0.8,3.5,1.8h0.1V315h3.3v17.2h-3.1v-1.6h0
			c-0.7,1.2-1.9,2-3.7,2C648.6,332.5,646.4,330,646.4,326z M655.3,326.1c0-2.4-0.8-3.9-2.9-3.9c-1.8,0-2.7,1.6-2.7,3.9
			c0,2.4,0.9,3.8,2.6,3.8C654.3,329.8,655.3,328.3,655.3,326.1z"/>
		<path fill="#262626" d="M668.4,332.2v-1.4h-0.1c-0.8,1.1-1.8,1.8-3.5,1.8c-2.7,0-4.3-1.8-4.3-4.4v-8.2h3.2v7.7
			c0,1.4,0.6,2.2,2,2.2c1.5,0,2.5-1.2,2.5-2.8v-7.1h3.3v12.3H668.4z"/>
		<path fill="#262626" d="M673.1,326c0-3.7,2.4-6.5,6.1-6.5c3.2,0,5.2,1.8,5.6,4.5h-3.2c-0.2-1.1-1.1-1.9-2.3-1.9c-2,0-3,1.5-3,3.9
			c0,2.3,0.9,3.9,2.9,3.9c1.3,0,2.3-0.7,2.5-2.1h3.1c-0.2,2.6-2.3,4.7-5.5,4.7C675.5,332.5,673.1,329.7,673.1,326z"/>
		<path fill="#262626" d="M685.6,319.8h1.7V316h3.2v3.8h2.1v2.2h-2.1v6.5c0,0.9,0.5,1.2,1.2,1.2c0.4,0,1,0,1,0v2.4c0,0-0.7,0-2,0
			c-1.6,0-3.3-0.6-3.3-3V322h-1.7V319.8z"/>
		<path fill="#262626" d="M693.5,328.2h3c0.2,1.4,1.2,2,2.7,2c1.4,0,2.3-0.6,2.3-1.4c0-1.2-1.6-1.3-3.2-1.6c-2.2-0.4-4.4-1-4.4-3.7
			c0-2.7,2.2-3.9,5-3.9c3.2,0,5,1.6,5.3,4.1h-3c-0.1-1.3-1-1.8-2.4-1.8c-1.3,0-2.1,0.5-2.1,1.4c0,1.1,1.6,1.2,3.4,1.5
			c2.1,0.4,4.3,1,4.3,3.9c0,2.5-2.1,4-5.2,4C695.7,332.5,693.7,330.8,693.5,328.2z"/>
	</g>
	<g>
		<path fill="#FFFFFF" d="M961.9,463.4c-2.2-1.9-3.3-4.8-3.3-8.2h7c0.2,3.2,1.8,5.5,5.5,5.5c3,0,4.7-1.7,4.7-4.2c0-2.6-1.8-4-5.1-4
			h-1.8v-5.1h1.6c2.8,0,4.7-1.2,4.7-3.5c0-2.1-1.5-3.4-4-3.4c-3.2,0-4.6,2-4.8,4.6h-6.9c0.1-6,4.3-10.2,11.8-10.2
			c6.6,0,11.2,3.2,11.2,8.5c0,3.1-1.9,5-4.6,6v0.1c3.3,1,5.5,3.3,5.5,7.4c0,6.5-5.6,9.5-11.9,9.5C967.2,466.3,964,465.3,961.9,463.4
			z"/>
		<path fill="#FFFFFF" d="M985.7,458.2h7.5v7.4h-7.5V458.2z"/>
		<path fill="#FFFFFF" d="M995.2,456.5h7.3c0.5,2.6,2.6,3.8,5.3,3.8c3,0,4.9-2.1,4.9-5.1c0-3.1-2-5-4.9-5c-1.9,0-3.5,0.8-4.3,1.8h-7
			l3.1-16.7h18.7v5.9h-13.4l-1.1,5.4h0.1c1.1-1,3.1-1.8,5.9-1.8c5.8,0,10.4,4,10.4,10.3c0,6.7-5,11-12.2,11
			C1001.1,466.3,995.9,463,995.2,456.5z"/>
		<path fill="#FFFFFF" d="M1022.1,443.6c0-5.4,3.4-8.8,8.1-8.8c4.8,0,8.1,3.5,8.1,8.8c0,5.3-3.4,8.8-8.1,8.8
			C1025.5,452.4,1022.1,448.9,1022.1,443.6z M1032.8,443.6c0-2.9-0.8-5.1-2.6-5.1c-1.8,0-2.6,2.2-2.6,5.1c0,2.9,0.8,5,2.6,5
			C1032,448.6,1032.8,446.6,1032.8,443.6z M1046.4,435.4h4.1l-16.3,30.2h-4.1L1046.4,435.4z M1042.4,457.5c0-5.3,3.4-8.8,8.1-8.8
			c4.8,0,8.1,3.4,8.1,8.8c0,5.4-3.4,8.8-8.1,8.8C1045.8,466.3,1042.4,462.8,1042.4,457.5z M1053.2,457.5c0-2.9-0.8-5.1-2.6-5.1
			c-1.9,0-2.6,2.1-2.6,5.1c0,2.9,0.7,5,2.6,5C1052.4,462.5,1053.2,460.4,1053.2,457.5z"/>
		<path fill="#262626" d="M958.4,477.2h13.8v2.9H967v14.2h-3.5v-14.2h-5.2V477.2z"/>
		<path fill="#262626" d="M976.8,484L976.8,484c0.8-1.4,1.7-2.1,3.1-2.1c0.4,0,0.6,0,0.8,0.1v2.9h-0.1c-2.1-0.2-3.7,0.9-3.7,3.5v6
			h-3.3v-12.3h3.1V484z"/>
		<path fill="#262626" d="M989.5,493L989.5,493c-0.7,0.9-1.6,1.7-3.7,1.7c-2.5,0-4.3-1.3-4.3-3.8c0-2.7,2.2-3.6,4.9-4
			c2-0.3,3-0.5,3-1.4c0-0.9-0.7-1.5-2.1-1.5c-1.5,0-2.3,0.6-2.4,1.7h-2.9c0.1-2.2,1.7-4.1,5.3-4.1c3.7,0,5.2,1.7,5.2,4.5v6.3
			c0,0.9,0.1,1.5,0.4,1.7v0.1h-3.1C989.7,494.1,989.6,493.5,989.5,493z M989.5,490v-1.8c-0.6,0.3-1.5,0.5-2.3,0.7
			c-1.7,0.4-2.5,0.8-2.5,1.9c0,1.2,0.8,1.6,1.9,1.6C988.5,492.4,989.5,491.2,989.5,490z"/>
		<path fill="#262626" d="M997.8,483.7L997.8,483.7c0.9-1.3,2-2,3.7-2c2.5,0,4.2,1.9,4.2,4.6v8h-3.3v-7.6c0-1.3-0.8-2.3-2.1-2.3
			c-1.4,0-2.5,1.2-2.5,2.8v7h-3.3v-12.3h3.2V483.7z"/>
		<path fill="#262626" d="M1007.1,490.4h3c0.2,1.4,1.2,2,2.7,2c1.4,0,2.3-0.6,2.3-1.4c0-1.2-1.6-1.3-3.2-1.6c-2.2-0.4-4.4-1-4.4-3.7
			c0-2.7,2.2-3.9,5-3.9c3.2,0,5,1.6,5.3,4.1h-3c-0.1-1.3-1-1.8-2.4-1.8c-1.3,0-2.1,0.5-2.1,1.4c0,1.1,1.6,1.2,3.4,1.5
			c2.1,0.4,4.3,1,4.3,3.9c0,2.5-2.1,4-5.2,4C1009.2,494.7,1007.2,493,1007.1,490.4z"/>
		<path fill="#262626" d="M1019.5,482.1h3.1v1.5h0.1c0.8-1.1,1.9-1.9,3.6-1.9c3.3,0,5.4,2.7,5.4,6.5c0,4-2.2,6.5-5.3,6.5
			c-1.7,0-2.9-0.7-3.6-1.8h0v5.4h-3.3V482.1z M1028.3,488.3c0-2.3-0.8-4-2.8-4c-2,0-2.9,1.8-2.9,4c0,2.2,1,3.7,3,3.7
			C1027.3,492,1028.3,490.6,1028.3,488.3z"/>
		<path fill="#262626" d="M1032.6,488.2c0-3.7,2.6-6.5,6.4-6.5s6.4,2.8,6.4,6.5s-2.6,6.5-6.4,6.5S1032.6,491.9,1032.6,488.2z
			 M1042.1,488.2c0-2.4-1.1-4-3.1-4c-2,0-3.1,1.6-3.1,4s1.1,4,3.1,4C1041,492.2,1042.1,490.6,1042.1,488.2z"/>
		<path fill="#262626" d="M1050.1,484L1050.1,484c0.8-1.4,1.7-2.1,3.1-2.1c0.4,0,0.6,0,0.8,0.1v2.9h-0.1c-2.1-0.2-3.7,0.9-3.7,3.5v6
			h-3.3v-12.3h3.1V484z"/>
		<path fill="#262626" d="M1054.6,482.1h1.7v-3.8h3.2v3.8h2.1v2.2h-2.1v6.5c0,0.9,0.5,1.2,1.2,1.2c0.4,0,1,0,1,0v2.4c0,0-0.7,0-2,0
			c-1.6,0-3.3-0.6-3.3-3v-7.2h-1.7V482.1z"/>
		<path fill="#262626" d="M1070.7,493L1070.7,493c-0.7,0.9-1.6,1.7-3.7,1.7c-2.5,0-4.3-1.3-4.3-3.8c0-2.7,2.2-3.6,4.9-4
			c2-0.3,3-0.5,3-1.4c0-0.9-0.7-1.5-2.1-1.5c-1.5,0-2.3,0.6-2.4,1.7h-2.9c0.1-2.2,1.7-4.1,5.3-4.1c3.7,0,5.2,1.7,5.2,4.5v6.3
			c0,0.9,0.1,1.5,0.4,1.7v0.1h-3.1C1070.9,494.1,1070.8,493.5,1070.7,493z M1070.7,490v-1.8c-0.6,0.3-1.5,0.5-2.3,0.7
			c-1.7,0.4-2.5,0.8-2.5,1.9c0,1.2,0.8,1.6,1.9,1.6C1069.7,492.4,1070.7,491.2,1070.7,490z"/>
		<path fill="#262626" d="M1075.1,482.1h1.7v-3.8h3.2v3.8h2.1v2.2h-2.1v6.5c0,0.9,0.5,1.2,1.2,1.2c0.4,0,1,0,1,0v2.4c0,0-0.7,0-2,0
			c-1.6,0-3.3-0.6-3.3-3v-7.2h-1.7V482.1z"/>
		<path fill="#262626" d="M1083.8,477.2h3.3v2.9h-3.3V477.2z M1083.8,482.1h3.3v12.3h-3.3V482.1z"/>
		<path fill="#262626" d="M1088.6,488.2c0-3.7,2.6-6.5,6.4-6.5s6.4,2.8,6.4,6.5s-2.6,6.5-6.4,6.5S1088.6,491.9,1088.6,488.2z
			 M1098.2,488.2c0-2.4-1.1-4-3.1-4c-2,0-3.1,1.6-3.1,4s1.1,4,3.1,4C1097,492.2,1098.2,490.6,1098.2,488.2z"/>
		<path fill="#262626" d="M1106.2,483.7L1106.2,483.7c0.9-1.3,2-2,3.7-2c2.5,0,4.2,1.9,4.2,4.6v8h-3.3v-7.6c0-1.3-0.8-2.3-2.1-2.3
			c-1.4,0-2.5,1.2-2.5,2.8v7h-3.3v-12.3h3.2V483.7z"/>
	</g>
	<g>
		<path fill="#FFFFFF" d="M711.8,463.4c-2.2-1.9-3.3-4.8-3.3-8.2h7c0.2,3.2,1.8,5.5,5.5,5.5c3,0,4.7-1.7,4.7-4.2c0-2.6-1.8-4-5.1-4
			h-1.8v-5.1h1.6c2.8,0,4.7-1.2,4.7-3.5c0-2.1-1.5-3.4-4-3.4c-3.2,0-4.6,2-4.8,4.6h-6.9c0.1-6,4.3-10.2,11.8-10.2
			c6.6,0,11.2,3.2,11.2,8.5c0,3.1-1.9,5-4.6,6v0.1c3.3,1,5.5,3.3,5.5,7.4c0,6.5-5.6,9.5-11.9,9.5C717,466.3,713.9,465.3,711.8,463.4
			z"/>
		<path fill="#FFFFFF" d="M735.6,458.2h7.5v7.4h-7.5V458.2z"/>
		<path fill="#FFFFFF" d="M745.3,456.9c0-3.4,2-6.1,5.2-7.5v-0.1c-2.6-1.3-4-3.3-4-6.1c0-5,4.4-8.4,11.4-8.4c7,0,11.3,3.2,11.3,8.3
			c0,2.6-1.5,4.7-4,6v0.1c3.3,1.3,5.2,4,5.2,7.5c0,5.9-5.1,9.5-12.5,9.5C750.5,466.3,745.3,462.7,745.3,456.9z M763.1,456.5
			c0-2.7-2-4.5-5.1-4.5c-3.1,0-5.3,1.8-5.3,4.5c0,2.6,2.1,4.3,5.2,4.3C761,460.8,763.1,459.1,763.1,456.5z M762.4,443.6
			c0-2.2-1.7-3.7-4.5-3.7s-4.4,1.5-4.4,3.7s1.7,3.7,4.4,3.7S762.4,445.7,762.4,443.6z"/>
		<path fill="#FFFFFF" d="M772.2,443.6c0-5.4,3.4-8.8,8.1-8.8c4.8,0,8.1,3.5,8.1,8.8c0,5.3-3.4,8.8-8.1,8.8
			C775.6,452.4,772.2,448.9,772.2,443.6z M782.9,443.6c0-2.9-0.8-5.1-2.6-5.1c-1.8,0-2.6,2.2-2.6,5.1c0,2.9,0.8,5,2.6,5
			C782.1,448.6,782.9,446.6,782.9,443.6z M796.5,435.4h4.1l-16.3,30.2h-4.1L796.5,435.4z M792.5,457.5c0-5.3,3.4-8.8,8.1-8.8
			c4.8,0,8.1,3.4,8.1,8.8c0,5.4-3.4,8.8-8.1,8.8C795.9,466.3,792.5,462.8,792.5,457.5z M803.3,457.5c0-2.9-0.8-5.1-2.6-5.1
			c-1.9,0-2.6,2.1-2.6,5.1c0,2.9,0.7,5,2.6,5C802.5,462.5,803.3,460.4,803.3,457.5z"/>
		<path fill="#262626" d="M715.6,487.7h-2.8v6.6h-3.6v-17.2h7.5c2,0,3.5,0.6,4.5,1.6c1,1,1.5,2.2,1.5,3.7c0,2.4-1.2,4.1-3.4,4.8
			l4.3,7h-4L715.6,487.7z M712.7,484.9h3.6c1.8,0,2.8-0.8,2.8-2.4c0-1.6-1-2.3-2.7-2.3h-3.6V484.9z"/>
		<path fill="#262626" d="M724,488.2c0-3.6,2.5-6.5,6.1-6.5c4,0,6.1,3,6.1,7.4h-8.9c0.2,1.9,1.3,3.1,3.1,3.1c1.3,0,2-0.6,2.4-1.5
			h3.2c-0.5,2.2-2.4,4-5.6,4C726.3,494.7,724,491.9,724,488.2z M727.3,486.9h5.5c-0.1-1.6-1.1-2.6-2.6-2.6
			C728.4,484.2,727.5,485.3,727.3,486.9z"/>
		<path fill="#262626" d="M736.9,482.1h1.7v-3.8h3.2v3.8h2.1v2.2h-2.1v6.5c0,0.9,0.5,1.2,1.2,1.2c0.4,0,1,0,1,0v2.4c0,0-0.7,0-2,0
			c-1.6,0-3.3-0.6-3.3-3v-7.2h-1.7V482.1z"/>
		<path fill="#262626" d="M753,493L753,493c-0.7,0.9-1.6,1.7-3.7,1.7c-2.5,0-4.3-1.3-4.3-3.8c0-2.7,2.2-3.6,4.9-4c2-0.3,3-0.5,3-1.4
			c0-0.9-0.7-1.5-2.1-1.5c-1.5,0-2.3,0.6-2.4,1.7h-2.9c0.1-2.2,1.7-4.1,5.3-4.1c3.7,0,5.2,1.7,5.2,4.5v6.3c0,0.9,0.1,1.5,0.4,1.7
			v0.1h-3.1C753.2,494.1,753.1,493.5,753,493z M753,490v-1.8c-0.6,0.3-1.5,0.5-2.3,0.7c-1.7,0.4-2.5,0.8-2.5,1.9
			c0,1.2,0.8,1.6,1.9,1.6C752,492.4,753,491.2,753,490z"/>
		<path fill="#262626" d="M758.1,477.2h3.3v2.9h-3.3V477.2z M758.1,482.1h3.3v12.3h-3.3V482.1z"/>
		<path fill="#262626" d="M763.6,477.2h3.3v17.2h-3.3V477.2z"/>
	</g>
	<g>
		<path fill="#FFFFFF" d="M498.8,450.7c0-4.9,1.1-9.1,3.7-12.1c2.2-2.5,5.2-3.9,9.5-3.9c6.2,0,10.2,3.2,11.1,8.1H516
			c-0.4-1.5-1.5-2.8-4-2.8c-3.7,0-5.7,2.8-5.9,7.6h0.1c1.6-1.7,3.7-2.9,6.9-2.9c5.8,0,10.9,4.2,10.9,10.7c0,6.4-5.1,10.7-12,10.7
			C503.2,466.3,498.8,459.7,498.8,450.7z M516.9,455.6c0-3-2.2-5.3-5.2-5.3c-3.2,0-5.2,2.2-5.2,5.3c0,3,2.2,5.1,5.2,5.1
			C514.8,460.7,516.9,458.5,516.9,455.6z"/>
		<path fill="#FFFFFF" d="M526.3,458.2h7.5v7.4h-7.5V458.2z"/>
		<path fill="#FFFFFF" d="M539.2,463.4c-2.2-1.9-3.3-4.8-3.3-8.2h7c0.2,3.2,1.8,5.5,5.5,5.5c3,0,4.7-1.7,4.7-4.2c0-2.6-1.8-4-5.1-4
			h-1.8v-5.1h1.6c2.8,0,4.7-1.2,4.7-3.5c0-2.1-1.5-3.4-4-3.4c-3.2,0-4.6,2-4.8,4.6h-6.9c0.1-6,4.3-10.2,11.8-10.2
			c6.6,0,11.2,3.2,11.2,8.5c0,3.1-1.9,5-4.6,6v0.1c3.3,1,5.5,3.3,5.5,7.4c0,6.5-5.6,9.5-11.9,9.5
			C544.4,466.3,541.3,465.3,539.2,463.4z"/>
		<path fill="#FFFFFF" d="M562.4,443.6c0-5.4,3.4-8.8,8.1-8.8c4.8,0,8.1,3.5,8.1,8.8c0,5.3-3.4,8.8-8.1,8.8
			C565.9,452.4,562.4,448.9,562.4,443.6z M573.1,443.6c0-2.9-0.8-5.1-2.6-5.1c-1.8,0-2.6,2.2-2.6,5.1c0,2.9,0.8,5,2.6,5
			C572.3,448.6,573.1,446.6,573.1,443.6z M586.7,435.4h4.1l-16.3,30.2h-4.1L586.7,435.4z M582.8,457.5c0-5.3,3.4-8.8,8.1-8.8
			c4.8,0,8.1,3.4,8.1,8.8c0,5.4-3.4,8.8-8.1,8.8C586.2,466.3,582.8,462.8,582.8,457.5z M593.5,457.5c0-2.9-0.8-5.1-2.6-5.1
			c-1.9,0-2.6,2.1-2.6,5.1c0,2.9,0.7,5,2.6,5C592.7,462.5,593.5,460.4,593.5,457.5z"/>
		<path fill="#262626" d="M499,477.2h12.6v2.9h-9.1v3.8h8v2.9h-8v4.6h9.2v2.9H499V477.2z"/>
		<path fill="#262626" d="M516.8,483.7L516.8,483.7c0.9-1.3,2-2,3.7-2c2.5,0,4.2,1.9,4.2,4.6v8h-3.3v-7.6c0-1.3-0.8-2.3-2.1-2.3
			c-1.4,0-2.5,1.2-2.5,2.8v7h-3.3v-12.3h3.2V483.7z"/>
		<path fill="#262626" d="M526.2,488.2c0-3.6,2.5-6.5,6.1-6.5c4,0,6.1,3,6.1,7.4h-8.9c0.2,1.9,1.3,3.1,3.1,3.1c1.3,0,2-0.6,2.4-1.5
			h3.2c-0.5,2.2-2.4,4-5.6,4C528.5,494.7,526.2,491.9,526.2,488.2z M529.4,486.9h5.5c-0.1-1.6-1.1-2.6-2.6-2.6
			C530.5,484.2,529.7,485.3,529.4,486.9z"/>
		<path fill="#262626" d="M543,484L543,484c0.8-1.4,1.7-2.1,3.1-2.1c0.4,0,0.6,0,0.8,0.1v2.9h-0.1c-2.1-0.2-3.7,0.9-3.7,3.5v6h-3.3
			v-12.3h3.1V484z"/>
		<path fill="#262626" d="M547.9,494.7h3.2c0.3,0.8,1,1.4,2.5,1.4c1.8,0,2.7-0.9,2.7-2.6v-1.3h-0.1c-0.7,0.8-1.7,1.4-3.2,1.4
			c-2.7,0-5.4-2.2-5.4-5.9c0-3.7,2.2-6,5.3-6c1.5,0,2.7,0.6,3.4,1.6h0v-1.3h3.1v11.4c0,1.7-0.6,2.9-1.5,3.7c-1,1-2.6,1.4-4.4,1.4
			C550.3,498.6,548.2,497.1,547.9,494.7z M556.5,487.7c0-1.8-1-3.3-2.9-3.3c-1.7,0-2.8,1.3-2.8,3.4c0,2.1,1.1,3.3,2.8,3.3
			C555.7,491,556.5,489.5,556.5,487.7z"/>
		<path fill="#262626" d="M561.9,495.8h1.2c1.3,0,1.8-0.7,1.8-1.7c0-0.7-0.2-1.5-0.9-3.3l-3.3-8.8h3.4l1.8,5.5
			c0.4,1.1,0.8,2.7,0.8,2.7h0c0,0,0.3-1.6,0.7-2.7l1.7-5.5h3.3l-4.3,12.6c-0.9,2.7-1.8,3.7-4.3,3.7h-1.9V495.8z"/>
	</g>
	<g>
		<path fill="#FFFFFF" d="M711.8,576.5c-2.2-1.9-3.3-4.8-3.3-8.2h7c0.2,3.2,1.8,5.5,5.5,5.5c3,0,4.7-1.7,4.7-4.2c0-2.6-1.8-4-5.1-4
			h-1.8v-5.1h1.6c2.8,0,4.7-1.2,4.7-3.5c0-2.1-1.5-3.4-4-3.4c-3.2,0-4.6,2-4.8,4.6h-6.9c0.1-6,4.3-10.2,11.8-10.2
			c6.6,0,11.2,3.2,11.2,8.5c0,3.1-1.9,5-4.6,6v0.1c3.3,1,5.5,3.3,5.5,7.4c0,6.5-5.6,9.5-11.9,9.5C717,579.4,713.9,578.4,711.8,576.5
			z"/>
		<path fill="#FFFFFF" d="M735.6,571.3h7.5v7.4h-7.5V571.3z"/>
		<path fill="#FFFFFF" d="M759.8,555L759.8,555l-14.5-0.1v-6.3h22.3v5.7c-5.3,5.3-10.1,14.1-10.4,24.4h-7.7
			C749.8,567.8,755.5,559.3,759.8,555z"/>
		<path fill="#FFFFFF" d="M769.4,556.8c0-5.4,3.4-8.8,8.1-8.8c4.8,0,8.1,3.5,8.1,8.8c0,5.3-3.4,8.8-8.1,8.8
			C772.8,565.6,769.4,562.1,769.4,556.8z M780.1,556.8c0-2.9-0.8-5.1-2.6-5.1c-1.8,0-2.6,2.2-2.6,5.1c0,2.9,0.8,5,2.6,5
			C779.3,561.7,780.1,559.7,780.1,556.8z M793.7,548.5h4.1l-16.3,30.2h-4.1L793.7,548.5z M789.7,570.6c0-5.3,3.4-8.8,8.1-8.8
			c4.8,0,8.1,3.4,8.1,8.8c0,5.4-3.4,8.8-8.1,8.8C793.1,579.5,789.7,576,789.7,570.6z M800.4,570.6c0-2.9-0.8-5.1-2.6-5.1
			c-1.9,0-2.6,2.1-2.6,5.1c0,2.9,0.7,5,2.6,5C799.6,575.6,800.4,573.6,800.4,570.6z"/>
		<path fill="#262626" d="M709.1,590.4h7.5c2,0,3.5,0.6,4.5,1.6c1,1,1.5,2.3,1.5,3.9c0,3.2-2.1,5.4-5.7,5.4h-4.2v6.2h-3.6V590.4z
			 M712.7,598.5h3.6c1.8,0,2.8-1,2.8-2.6c0-1.6-1-2.5-2.7-2.5h-3.6V598.5z"/>
		<path fill="#262626" d="M727.4,596.8L727.4,596.8c1-1.3,2-1.9,3.6-1.9c2.5,0,4.2,1.9,4.2,4.6v8h-3.3V600c0-1.3-0.8-2.3-2.1-2.3
			c-1.4,0-2.5,1.2-2.5,2.8v7h-3.3v-17.2h3.3V596.8z"/>
		<path fill="#262626" d="M744.7,606.2L744.7,606.2c-0.7,0.9-1.6,1.7-3.7,1.7c-2.5,0-4.3-1.3-4.3-3.8c0-2.7,2.2-3.6,4.9-4
			c2-0.3,3-0.5,3-1.4c0-0.9-0.7-1.5-2.1-1.5c-1.5,0-2.3,0.6-2.4,1.7h-2.9c0.1-2.2,1.7-4.1,5.3-4.1c3.7,0,5.2,1.7,5.2,4.5v6.3
			c0,0.9,0.1,1.5,0.4,1.7v0.1h-3.1C744.9,607.3,744.8,606.7,744.7,606.2z M744.7,603.2v-1.8c-0.6,0.3-1.5,0.5-2.3,0.7
			c-1.7,0.4-2.5,0.8-2.5,1.9c0,1.2,0.8,1.6,1.9,1.6C743.7,605.5,744.7,604.4,744.7,603.2z"/>
		<path fill="#262626" d="M753,597.2L753,597.2c0.8-1.4,1.7-2.1,3.1-2.1c0.4,0,0.6,0,0.8,0.1v2.9h-0.1c-2.1-0.2-3.7,0.9-3.7,3.5v6
			h-3.3v-12.3h3.1V597.2z"/>
		<path fill="#262626" d="M758.3,595.2h3.1v1.7h0.1c0.7-1.1,1.9-2,3.6-2c1.6,0,2.8,0.9,3.4,2.2h0c0.8-1.3,2.1-2.2,3.7-2.2
			c2.6,0,4.1,1.7,4.1,4.4v8.3H773v-7.7c0-1.4-0.7-2.1-1.9-2.1c-1.4,0-2.2,1.1-2.2,2.7v7.2h-3.3v-7.7c0-1.4-0.7-2.1-1.9-2.1
			c-1.3,0-2.2,1.1-2.2,2.7v7.2h-3.3V595.2z"/>
		<path fill="#262626" d="M785.7,606.2L785.7,606.2c-0.7,0.9-1.6,1.7-3.7,1.7c-2.5,0-4.3-1.3-4.3-3.8c0-2.7,2.2-3.6,4.9-4
			c2-0.3,3-0.5,3-1.4c0-0.9-0.7-1.5-2.1-1.5c-1.5,0-2.3,0.6-2.4,1.7h-2.9c0.1-2.2,1.7-4.1,5.3-4.1c3.7,0,5.2,1.7,5.2,4.5v6.3
			c0,0.9,0.1,1.5,0.4,1.7v0.1h-3.1C785.9,607.3,785.7,606.7,785.7,606.2z M785.7,603.2v-1.8c-0.6,0.3-1.5,0.5-2.3,0.7
			c-1.7,0.4-2.5,0.8-2.5,1.9c0,1.2,0.8,1.6,1.9,1.6C784.7,605.5,785.7,604.4,785.7,603.2z"/>
		<path fill="#262626" d="M790.2,601.4c0-3.7,2.4-6.5,6.1-6.5c3.2,0,5.2,1.8,5.6,4.5h-3.2c-0.2-1.1-1.1-1.9-2.3-1.9
			c-2,0-3,1.5-3,3.9c0,2.3,0.9,3.9,2.9,3.9c1.3,0,2.3-0.7,2.5-2.1h3.1c-0.2,2.6-2.3,4.7-5.5,4.7
			C792.7,607.9,790.2,605.1,790.2,601.4z"/>
		<path fill="#262626" d="M802.9,601.4c0-3.6,2.5-6.5,6.1-6.5c4,0,6.1,3,6.1,7.4h-8.9c0.2,1.9,1.3,3.1,3.1,3.1c1.3,0,2-0.6,2.4-1.5
			h3.2c-0.5,2.2-2.4,4-5.6,4C805.2,607.9,802.9,605,802.9,601.4z M806.2,600h5.5c-0.1-1.6-1.1-2.6-2.6-2.6
			C807.3,597.4,806.5,598.4,806.2,600z"/>
		<path fill="#262626" d="M824.3,607.5v-1.4h-0.1c-0.8,1.1-1.8,1.8-3.5,1.8c-2.7,0-4.3-1.8-4.3-4.4v-8.2h3.2v7.7
			c0,1.4,0.6,2.2,2,2.2c1.5,0,2.5-1.2,2.5-2.8v-7.1h3.3v12.3H824.3z"/>
		<path fill="#262626" d="M828.9,595.2h1.7v-3.8h3.2v3.8h2.1v2.2h-2.1v6.5c0,0.9,0.5,1.2,1.2,1.2c0.4,0,1,0,1,0v2.4c0,0-0.7,0-2,0
			c-1.6,0-3.3-0.6-3.3-3v-7.2h-1.7V595.2z"/>
		<path fill="#262626" d="M837.6,590.4h3.3v2.9h-3.3V590.4z M837.6,595.2h3.3v12.3h-3.3V595.2z"/>
		<path fill="#262626" d="M842.3,601.4c0-3.7,2.4-6.5,6.1-6.5c3.2,0,5.2,1.8,5.6,4.5h-3.2c-0.2-1.1-1.1-1.9-2.3-1.9
			c-2,0-3,1.5-3,3.9c0,2.3,0.9,3.9,2.9,3.9c1.3,0,2.3-0.7,2.5-2.1h3.1c-0.2,2.6-2.3,4.7-5.5,4.7
			C844.8,607.9,842.3,605.1,842.3,601.4z"/>
		<path fill="#262626" d="M863,606.2L863,606.2c-0.7,0.9-1.6,1.7-3.7,1.7c-2.5,0-4.3-1.3-4.3-3.8c0-2.7,2.2-3.6,4.9-4
			c2-0.3,3-0.5,3-1.4c0-0.9-0.7-1.5-2.1-1.5c-1.5,0-2.3,0.6-2.4,1.7h-2.9c0.1-2.2,1.7-4.1,5.3-4.1c3.7,0,5.2,1.7,5.2,4.5v6.3
			c0,0.9,0.1,1.5,0.4,1.7v0.1h-3.1C863.2,607.3,863,606.7,863,606.2z M863,603.2v-1.8c-0.6,0.3-1.5,0.5-2.3,0.7
			c-1.7,0.4-2.5,0.8-2.5,1.9c0,1.2,0.8,1.6,1.9,1.6C862,605.5,863,604.4,863,603.2z"/>
		<path fill="#262626" d="M868.2,590.4h3.3v17.2h-3.3V590.4z"/>
		<path fill="#262626" d="M872.8,603.5h3c0.2,1.4,1.2,2,2.7,2c1.4,0,2.3-0.6,2.3-1.4c0-1.2-1.6-1.3-3.2-1.6c-2.2-0.4-4.4-1-4.4-3.7
			c0-2.7,2.2-3.9,5-3.9c3.2,0,5,1.6,5.3,4.1h-3c-0.1-1.3-1-1.8-2.4-1.8c-1.3,0-2.1,0.5-2.1,1.4c0,1.1,1.6,1.2,3.4,1.5
			c2.1,0.4,4.3,1,4.3,3.9c0,2.5-2.1,4-5.2,4C875,607.9,873,606.2,872.8,603.5z"/>
	</g>
	<g>
		<path fill="#FFFFFF" d="M964.3,579.2c2.7-2.3,6.2-4.5,8.6-6.6c1.2-1.1,2-2.2,2-3.7c0-2.3-1.4-3.9-3.9-3.9c-1.4,0-2.5,0.4-3.3,1.4
			c-0.9,1-1.3,2.4-1.4,4.4h-7c0-3.5,0.6-5.7,2.1-7.7c1.7-2.5,5-4.1,9.7-4.1c7.3,0,11.2,4.3,11.2,9.6c0,4.2-2.3,6.6-5,8.7
			c-2.7,2.2-5.9,4-8.1,6.3v0h13.1v6.1h-23.4C959,584.6,961.3,581.7,964.3,579.2z"/>
		<path fill="#FFFFFF" d="M984.9,582.2h7.5v7.4h-7.5V582.2z"/>
		<path fill="#FFFFFF" d="M994.7,581c0-3.4,2-6.1,5.2-7.5v-0.1c-2.6-1.3-4-3.3-4-6.1c0-5,4.4-8.4,11.4-8.4c7,0,11.3,3.2,11.3,8.3
			c0,2.6-1.5,4.7-4,6v0.1c3.3,1.3,5.2,4,5.2,7.5c0,5.9-5.1,9.5-12.5,9.5C999.9,590.3,994.7,586.7,994.7,581z M1012.5,580.5
			c0-2.7-2-4.5-5.1-4.5c-3.1,0-5.3,1.8-5.3,4.5c0,2.6,2.1,4.3,5.2,4.3C1010.4,584.8,1012.5,583.1,1012.5,580.5z M1011.7,567.6
			c0-2.2-1.7-3.7-4.5-3.7s-4.4,1.5-4.4,3.7s1.7,3.7,4.4,3.7S1011.7,569.8,1011.7,567.6z"/>
		<path fill="#FFFFFF" d="M1021.6,567.7c0-5.4,3.4-8.8,8.1-8.8c4.8,0,8.1,3.5,8.1,8.8c0,5.3-3.4,8.8-8.1,8.8
			C1025,576.5,1021.6,573,1021.6,567.7z M1032.2,567.7c0-2.9-0.8-5.1-2.6-5.1c-1.8,0-2.6,2.2-2.6,5.1c0,2.9,0.8,5,2.6,5
			C1031.5,572.7,1032.2,570.6,1032.2,567.7z M1045.8,559.5h4.1l-16.3,30.2h-4.1L1045.8,559.5z M1041.9,581.5c0-5.3,3.4-8.8,8.1-8.8
			c4.8,0,8.1,3.4,8.1,8.8c0,5.4-3.4,8.8-8.1,8.8C1045.3,590.4,1041.9,586.9,1041.9,581.5z M1052.6,581.5c0-2.9-0.8-5.1-2.6-5.1
			c-1.9,0-2.6,2.1-2.6,5.1c0,2.9,0.7,5,2.6,5C1051.8,586.6,1052.6,584.5,1052.6,581.5z"/>
		<path fill="#262626" d="M958.6,609.9c0-5.1,3.2-9,8.2-9c4.2,0,6.7,2.5,7.1,5.8h-3.5c-0.3-1.7-1.6-2.9-3.6-2.9
			c-3.2,0-4.7,2.6-4.7,6c0,3.5,1.8,6,4.7,6c2,0,3.5-1.2,3.7-3h3.4c-0.1,1.5-0.7,3-1.9,4.1c-1.2,1.1-2.8,1.8-5.2,1.8
			C962,618.8,958.6,615.1,958.6,609.9z"/>
		<path fill="#262626" d="M978.7,607.7L978.7,607.7c1-1.3,2-1.9,3.6-1.9c2.5,0,4.2,1.9,4.2,4.6v8h-3.3v-7.6c0-1.3-0.8-2.3-2.1-2.3
			c-1.4,0-2.5,1.2-2.5,2.8v7h-3.3v-17.2h3.3V607.7z"/>
		<path fill="#262626" d="M988,612.3c0-3.6,2.5-6.5,6.1-6.5c4,0,6.1,3,6.1,7.4h-8.9c0.2,1.9,1.3,3.1,3.1,3.1c1.3,0,2-0.6,2.4-1.5
			h3.2c-0.5,2.2-2.4,4-5.6,4C990.3,618.8,988,615.9,988,612.3z M991.3,611h5.5c-0.1-1.6-1.1-2.6-2.6-2.6
			C992.4,608.3,991.6,609.3,991.3,611z"/>
		<path fill="#262626" d="M1001.7,606.1h3.1v1.7h0.1c0.7-1.1,1.9-2,3.6-2c1.6,0,2.8,0.9,3.4,2.2h0c0.8-1.3,2.1-2.2,3.7-2.2
			c2.6,0,4.1,1.7,4.1,4.4v8.3h-3.3v-7.7c0-1.4-0.7-2.1-1.9-2.1c-1.4,0-2.2,1.1-2.2,2.7v7.2h-3.3v-7.7c0-1.4-0.7-2.1-1.9-2.1
			c-1.3,0-2.2,1.1-2.2,2.7v7.2h-3.3V606.1z"/>
		<path fill="#262626" d="M1021.7,601.3h3.3v2.9h-3.3V601.3z M1021.7,606.1h3.3v12.3h-3.3V606.1z"/>
		<path fill="#262626" d="M1026.5,612.3c0-3.7,2.4-6.5,6.1-6.5c3.2,0,5.2,1.8,5.6,4.5h-3.2c-0.2-1.1-1.1-1.9-2.3-1.9
			c-2,0-3,1.5-3,3.9c0,2.3,0.9,3.9,2.9,3.9c1.3,0,2.3-0.7,2.5-2.1h3.1c-0.2,2.6-2.3,4.7-5.5,4.7
			C1028.9,618.8,1026.5,616,1026.5,612.3z"/>
		<path fill="#262626" d="M1047.1,617.1L1047.1,617.1c-0.7,0.9-1.6,1.7-3.7,1.7c-2.5,0-4.3-1.3-4.3-3.8c0-2.7,2.2-3.6,4.9-4
			c2-0.3,3-0.5,3-1.4c0-0.9-0.7-1.5-2.1-1.5c-1.5,0-2.3,0.6-2.4,1.7h-2.9c0.1-2.2,1.7-4.1,5.3-4.1c3.7,0,5.2,1.7,5.2,4.5v6.3
			c0,0.9,0.1,1.5,0.4,1.7v0.1h-3.1C1047.3,618.2,1047.2,617.6,1047.1,617.1z M1047.1,614.1v-1.8c-0.6,0.3-1.5,0.5-2.3,0.7
			c-1.7,0.4-2.5,0.8-2.5,1.9c0,1.2,0.8,1.6,1.9,1.6C1046.1,616.5,1047.1,615.3,1047.1,614.1z"/>
		<path fill="#262626" d="M1052.3,601.3h3.3v17.2h-3.3V601.3z"/>
		<path fill="#262626" d="M1057,614.5h3c0.2,1.4,1.2,2,2.7,2c1.4,0,2.3-0.6,2.3-1.4c0-1.2-1.6-1.3-3.2-1.6c-2.2-0.4-4.4-1-4.4-3.7
			c0-2.7,2.2-3.9,5-3.9c3.2,0,5,1.6,5.3,4.1h-3c-0.1-1.3-1-1.8-2.4-1.8c-1.3,0-2.1,0.5-2.1,1.4c0,1.1,1.6,1.2,3.4,1.5
			c2.1,0.4,4.3,1,4.3,3.9c0,2.5-2.1,4-5.2,4C1059.2,618.8,1057.2,617.1,1057,614.5z"/>
	</g>
</g>
<g>
</g>
<g>
</g>
<g>
</g>
<g>
</g>
<g>
</g>
<g>
</g>
</svg>
