<?xml version="1.0" encoding="utf-8"?>
<!-- Generator: Adobe Illustrator 18.1.0, SVG Export Plug-In . SVG Version: 6.00 Build 0)  -->
<svg version="1.1" id="Layer_1" xmlns="http://www.w3.org/2000/svg" xmlns:xlink="http://www.w3.org/1999/xlink" x="0px" y="0px"
	 viewBox="0 0 375 618" enable-background="new 0 0 375 618" xml:space="preserve">
<g>
	<rect x="186.2" y="0.5" fill="#00B9E7" width="188.2" height="256.9"/>
	<path fill="#FFFFFF" d="M185.6,258V0L375,0v258H185.6z M186.8,1.1v255.8h187.1V1.1H186.8z"/>
</g>
<g>
	<rect x="0.6" y="0.5" fill="#00B9E7" width="185.6" height="256.9"/>
	<path fill="#FFFFFF" d="M0,258L0,0l186.8,0v258H0z M1.2,1.1v255.8h184.4V1.1H1.2z"/>
</g>
<g>
	<rect x="0.6" y="258" fill="#00B9E7" width="238.5" height="143.7"/>
	<path fill="#FFFFFF" d="M239.6,402.3H0V257.4h239.6V402.3z M1.1,401.2h237.4V258.6H1.1V401.2z"/>
</g>
<g>
	<rect x="239.1" y="258" fill="#00B9E7" width="135.4" height="143.7"/>
	<path fill="#FFFFFF" d="M375,402.3H238.5V257.4H375V402.3z M239.6,401.2h134.2V258.6H239.6V401.2z"/>
</g>
<g>
	<rect x="0.6" y="401.8" fill="#00B9E7" width="210" height="90.5"/>
	<path fill="#FFFFFF" d="M211.1,492.8H0v-91.6h211.1V492.8z M1.1,491.6H210v-89.3H1.1V491.6z"/>
</g>
<g>
	<rect x="210.5" y="401.8" fill="#00B9E7" width="163.9" height="90.5"/>
	<path fill="#FFFFFF" d="M375,492.8H210v-91.6h165V492.8z M211.1,491.6h162.8v-89.3H211.1V491.6z"/>
</g>
<g>
	<rect x="0.6" y="492.2" fill="#00B9E7" width="117.2" height="124.5"/>
	<path fill="#FFFFFF" d="M118.3,617.3H0V491.6h118.3V617.3z M1.1,616.2h116.1V492.8H1.1V616.2z"/>
</g>
<g>
	<rect x="117.8" y="492.2" fill="#00B9E7" width="139.5" height="63.1"/>
	<path fill="#FFFFFF" d="M257.8,555.9H117.2v-64.2h140.6V555.9z M118.3,554.7h138.4v-62H118.3V554.7z"/>
</g>
<g>
	<rect x="117.8" y="555.3" fill="#00B9E7" width="139.5" height="61.4"/>
	<path fill="#FFFFFF" d="M257.8,617.3H117.2v-62.6h140.6V617.3z M118.3,616.2h138.4v-60.3H118.3V616.2z"/>
</g>
<g>
	<rect x="257.2" y="492.2" fill="#00B9E7" width="117.2" height="69.2"/>
	<path fill="#FFFFFF" d="M375,562H256.7v-70.3H375V562z M257.8,560.8h116.1v-68.1H257.8V560.8z"/>
</g>
<g>
	<path fill="#FFFFFF" d="M10,23.3c1.7-1.5,4-2.9,5.5-4.2c0.8-0.7,1.3-1.4,1.3-2.4c0-1.5-0.9-2.5-2.5-2.5c-0.9,0-1.6,0.3-2.1,0.9
		c-0.6,0.6-0.8,1.5-0.9,2.8H6.9c0-2.2,0.4-3.6,1.3-4.9c1.1-1.6,3.2-2.6,6.2-2.6c4.6,0,7.1,2.7,7.1,6.1c0,2.7-1.5,4.2-3.2,5.5
		c-1.7,1.4-3.8,2.6-5.1,4v0h8.3V30H6.6C6.7,26.8,8.1,24.9,10,23.3z"/>
	<path fill="#FFFFFF" d="M22.9,20.4c0-6.1,3.4-10,8.5-10c5.2,0,8.5,3.9,8.5,10s-3.4,10-8.5,10C26.4,30.5,22.9,26.5,22.9,20.4z
		 M35,20.4c0-3.7-1-6.4-3.6-6.4c-2.6,0-3.6,2.6-3.6,6.4c0,3.8,1.1,6.3,3.6,6.3C34,26.8,35,24.2,35,20.4z"/>
	<path fill="#FFFFFF" d="M41.4,25.3h4.8V30h-4.8V25.3z"/>
	<path fill="#FFFFFF" d="M48.3,25.3h4.5c0.3,1,1.1,1.8,2.7,1.8c1.1,0,1.9-0.3,2.5-1.1c0.7-0.8,1-2.1,1.1-3.8H59
		c-1,1.1-2.3,1.9-4.3,1.9c-3.9,0-7-2.7-7-6.8c0-4.1,3.2-6.8,7.7-6.8c2.4,0,4.4,0.8,5.8,2.2c1.7,1.7,2.5,4.2,2.5,7.7
		c0,3-0.6,5.7-2,7.4c-1.4,1.8-3.4,2.7-6.2,2.7C51.4,30.5,48.8,28.3,48.3,25.3z M59,17.3c0-1.9-1.4-3.3-3.4-3.3c-2,0-3.4,1.4-3.4,3.3
		c0,1.9,1.3,3.3,3.4,3.3C57.5,20.6,59,19.2,59,17.3z"/>
	<path fill="#FFFFFF" d="M65,16c0-3.4,2.2-5.6,5.1-5.6c3,0,5.1,2.2,5.1,5.6c0,3.4-2.2,5.6-5.1,5.6C67.2,21.6,65,19.4,65,16z
		 M71.8,16c0-1.9-0.5-3.2-1.7-3.2c-1.2,0-1.7,1.4-1.7,3.2c0,1.8,0.5,3.2,1.7,3.2C71.3,19.2,71.8,17.9,71.8,16z M80.4,10.8h2.6
		L72.7,30h-2.6L80.4,10.8z M77.9,24.9c0-3.4,2.2-5.6,5.1-5.6c3.1,0,5.2,2.2,5.2,5.6S86,30.5,83,30.5C80.1,30.5,77.9,28.3,77.9,24.9z
		 M84.7,24.9c0-1.8-0.5-3.2-1.7-3.2c-1.2,0-1.7,1.3-1.7,3.2s0.5,3.2,1.7,3.2C84.2,28.1,84.7,26.7,84.7,24.9z"/>
	<path fill="#262626" d="M6.4,42.3c0-3.4,2.1-6,5.5-6c2.8,0,4.5,1.7,4.7,3.9h-2.3c-0.2-1.2-1.1-1.9-2.4-1.9c-2.1,0-3.1,1.8-3.1,4
		c0,2.3,1.2,4,3.1,4c1.4,0,2.3-0.8,2.5-2h2.3c-0.1,1-0.5,2-1.3,2.7c-0.8,0.7-1.9,1.2-3.5,1.2C8.7,48.3,6.4,45.8,6.4,42.3z"/>
	<path fill="#262626" d="M17.2,43.9c0-2.4,1.7-4.3,4.3-4.3s4.3,1.9,4.3,4.3s-1.7,4.3-4.3,4.3S17.2,46.4,17.2,43.9z M23.6,43.9
		c0-1.6-0.8-2.7-2.1-2.7c-1.3,0-2.1,1.1-2.1,2.7s0.7,2.7,2.1,2.7C22.9,46.6,23.6,45.5,23.6,43.9z"/>
	<path fill="#262626" d="M29,40.9L29,40.9c0.6-0.9,1.4-1.3,2.5-1.3c1.7,0,2.8,1.3,2.8,3.1V48h-2.2v-5c0-0.9-0.5-1.5-1.4-1.5
		c-1,0-1.7,0.8-1.7,1.9V48h-2.2v-8.2H29V40.9z"/>
	<path fill="#262626" d="M35.1,45.4h2c0.1,0.9,0.8,1.4,1.8,1.4c1,0,1.5-0.4,1.5-0.9c0-0.8-1-0.9-2.2-1.1c-1.5-0.3-2.9-0.7-2.9-2.5
		c0-1.8,1.5-2.6,3.3-2.6c2.2,0,3.4,1.1,3.5,2.7h-2c-0.1-0.9-0.7-1.2-1.6-1.2c-0.8,0-1.4,0.3-1.4,0.9c0,0.7,1.1,0.8,2.3,1
		c1.4,0.3,2.9,0.7,2.9,2.6c0,1.6-1.4,2.6-3.5,2.6C36.6,48.3,35.2,47.1,35.1,45.4z"/>
	<path fill="#262626" d="M48.6,48v-1h0c-0.6,0.8-1.2,1.2-2.4,1.2c-1.8,0-2.8-1.2-2.8-3v-5.5h2.2v5.1c0,1,0.4,1.5,1.4,1.5
		c1,0,1.6-0.8,1.6-1.9v-4.7h2.2V48H48.6z"/>
	<path fill="#262626" d="M52.1,36.6h2.2V48h-2.2V36.6z"/>
	<path fill="#262626" d="M55.2,39.8h1.1v-2.6h2.1v2.6h1.4v1.4h-1.4v4.4c0,0.6,0.3,0.8,0.8,0.8c0.3,0,0.6,0,0.6,0V48c0,0-0.5,0-1.4,0
		c-1.1,0-2.2-0.4-2.2-2v-4.8h-1.1V39.8z"/>
	<path fill="#262626" d="M61,36.6h2.2v2H61V36.6z M61,39.8h2.2V48H61V39.8z"/>
	<path fill="#262626" d="M66.7,40.9L66.7,40.9c0.6-0.9,1.4-1.3,2.5-1.3c1.7,0,2.8,1.3,2.8,3.1V48h-2.2v-5c0-0.9-0.5-1.5-1.4-1.5
		c-1,0-1.7,0.8-1.7,1.9V48h-2.2v-8.2h2.1V40.9z"/>
	<path fill="#262626" d="M73.2,48.3h2.2c0.2,0.5,0.6,0.9,1.6,0.9c1.2,0,1.8-0.6,1.8-1.7v-0.9h0c-0.5,0.5-1.1,1-2.1,1
		c-1.8,0-3.6-1.4-3.6-3.9c0-2.4,1.5-4,3.6-4c1,0,1.8,0.4,2.3,1.1h0v-0.9h2.1v7.6c0,1.2-0.4,1.9-1,2.5c-0.7,0.6-1.7,0.9-3,0.9
		C74.8,50.8,73.4,49.9,73.2,48.3z M78.9,43.5c0-1.2-0.6-2.2-2-2.2c-1.1,0-1.8,0.9-1.8,2.2c0,1.4,0.7,2.2,1.9,2.2
		C78.4,45.8,78.9,44.8,78.9,43.5z"/>
</g>
<g>
	<path fill="#FFFFFF" d="M195.6,23.3c1.7-1.5,4-2.9,5.5-4.2c0.8-0.7,1.3-1.4,1.3-2.4c0-1.5-0.9-2.5-2.5-2.5c-0.9,0-1.6,0.3-2.1,0.9
		c-0.6,0.6-0.8,1.5-0.9,2.8h-4.4c0-2.2,0.4-3.6,1.3-4.9c1.1-1.6,3.2-2.6,6.2-2.6c4.6,0,7.1,2.7,7.1,6.1c0,2.7-1.5,4.2-3.2,5.5
		c-1.7,1.4-3.8,2.6-5.1,4v0h8.3V30h-14.9C192.2,26.8,193.7,24.9,195.6,23.3z"/>
	<path fill="#FFFFFF" d="M212.7,17.7h-4.1v-3.2c2.5-0.1,4.6-1.3,5.1-3.9h3.8V30h-4.7V17.7z"/>
	<path fill="#FFFFFF" d="M220.1,25.3h4.8V30h-4.8V25.3z"/>
	<path fill="#FFFFFF" d="M229.8,23.3c1.7-1.5,4-2.9,5.5-4.2c0.8-0.7,1.3-1.4,1.3-2.4c0-1.5-0.9-2.5-2.5-2.5c-0.9,0-1.6,0.3-2.1,0.9
		c-0.6,0.6-0.8,1.5-0.9,2.8h-4.4c0-2.2,0.4-3.6,1.3-4.9c1.1-1.6,3.2-2.6,6.2-2.6c4.6,0,7.1,2.7,7.1,6.1c0,2.7-1.5,4.2-3.2,5.5
		c-1.7,1.4-3.8,2.6-5.1,4v0h8.3V30h-14.9C226.5,26.8,227.9,24.9,229.8,23.3z"/>
	<path fill="#FFFFFF" d="M242.6,16c0-3.4,2.2-5.6,5.1-5.6c3,0,5.1,2.2,5.1,5.6c0,3.4-2.2,5.6-5.1,5.6
		C244.8,21.6,242.6,19.4,242.6,16z M249.4,16c0-1.9-0.5-3.2-1.7-3.2c-1.2,0-1.7,1.4-1.7,3.2c0,1.8,0.5,3.2,1.7,3.2
		C248.9,19.2,249.4,17.9,249.4,16z M258.1,10.8h2.6L250.3,30h-2.6L258.1,10.8z M255.6,24.9c0-3.4,2.2-5.6,5.1-5.6
		c3.1,0,5.2,2.2,5.2,5.6s-2.2,5.6-5.2,5.6C257.7,30.5,255.6,28.3,255.6,24.9z M262.4,24.9c0-1.8-0.5-3.2-1.7-3.2
		c-1.2,0-1.7,1.3-1.7,3.2s0.5,3.2,1.7,3.2C261.9,28,262.4,26.7,262.4,24.9z"/>
	<path fill="#262626" d="M192.5,36.6h8.2v2h-5.9v2.8h5v2h-5V48h-2.3V36.6z"/>
	<path fill="#262626" d="M201.8,36.6h2.2v2h-2.2V36.6z M201.8,39.8h2.2V48h-2.2V39.8z"/>
	<path fill="#262626" d="M207.5,40.9L207.5,40.9c0.6-0.9,1.4-1.3,2.5-1.3c1.7,0,2.8,1.3,2.8,3.1V48h-2.2v-5c0-0.9-0.5-1.5-1.4-1.5
		c-1,0-1.7,0.8-1.7,1.9V48h-2.2v-8.2h2.1V40.9z"/>
	<path fill="#262626" d="M219.1,47.1L219.1,47.1c-0.4,0.6-1,1.1-2.4,1.1c-1.7,0-2.9-0.9-2.9-2.5c0-1.8,1.5-2.4,3.3-2.6
		c1.4-0.2,2-0.3,2-0.9c0-0.6-0.5-1-1.4-1c-1,0-1.5,0.4-1.6,1.2h-1.9c0.1-1.4,1.1-2.7,3.5-2.7c2.5,0,3.5,1.1,3.5,3v4.2
		c0,0.6,0.1,1,0.3,1.1V48h-2.1C219.2,47.8,219.1,47.5,219.1,47.1z M219.1,45.1v-1.2c-0.4,0.2-1,0.4-1.5,0.5
		c-1.1,0.3-1.7,0.5-1.7,1.3s0.5,1,1.3,1C218.4,46.7,219.1,45.9,219.1,45.1z"/>
	<path fill="#262626" d="M224.6,40.9L224.6,40.9c0.6-0.9,1.4-1.3,2.5-1.3c1.7,0,2.8,1.3,2.8,3.1V48h-2.2v-5c0-0.9-0.5-1.5-1.4-1.5
		c-1,0-1.7,0.8-1.7,1.9V48h-2.2v-8.2h2.1V40.9z"/>
	<path fill="#262626" d="M230.9,43.9c0-2.4,1.6-4.3,4.1-4.3c2.1,0,3.4,1.2,3.7,3h-2.1c-0.1-0.7-0.7-1.3-1.5-1.3c-1.3,0-2,1-2,2.6
		c0,1.6,0.6,2.6,2,2.6c0.9,0,1.5-0.5,1.6-1.4h2.1c-0.1,1.7-1.5,3.1-3.7,3.1C232.5,48.2,230.9,46.4,230.9,43.9z"/>
	<path fill="#262626" d="M239.7,36.6h2.2v2h-2.2V36.6z M239.7,39.8h2.2V48h-2.2V39.8z"/>
	<path fill="#262626" d="M248.2,47.1L248.2,47.1c-0.4,0.6-1,1.1-2.4,1.1c-1.7,0-2.9-0.9-2.9-2.5c0-1.8,1.5-2.4,3.3-2.6
		c1.4-0.2,2-0.3,2-0.9c0-0.6-0.5-1-1.4-1c-1,0-1.5,0.4-1.6,1.2h-1.9c0.1-1.4,1.1-2.7,3.5-2.7c2.5,0,3.5,1.1,3.5,3v4.2
		c0,0.6,0.1,1,0.3,1.1V48h-2.1C248.4,47.8,248.3,47.5,248.2,47.1z M248.3,45.1v-1.2c-0.4,0.2-1,0.4-1.5,0.5
		c-1.1,0.3-1.7,0.5-1.7,1.3s0.5,1,1.3,1C247.6,46.7,248.3,45.9,248.3,45.1z"/>
	<path fill="#262626" d="M251.7,36.6h2.2V48h-2.2V36.6z"/>
	<path fill="#262626" d="M256.7,45.4h2c0.1,0.9,0.8,1.4,1.8,1.4c1,0,1.5-0.4,1.5-0.9c0-0.8-1-0.9-2.2-1.1c-1.5-0.3-2.9-0.7-2.9-2.5
		c0-1.8,1.5-2.6,3.3-2.6c2.2,0,3.4,1.1,3.5,2.7h-2c-0.1-0.9-0.7-1.2-1.6-1.2c-0.8,0-1.4,0.3-1.4,0.9c0,0.7,1.1,0.8,2.3,1
		c1.4,0.3,2.9,0.7,2.9,2.6c0,1.6-1.4,2.6-3.5,2.6C258.2,48.2,256.9,47.1,256.7,45.4z"/>
	<path fill="#262626" d="M264.6,43.9c0-2.4,1.6-4.3,4-4.3c2.6,0,4,2,4,4.9h-6c0.2,1.3,0.9,2,2.1,2c0.8,0,1.3-0.4,1.6-1h2.1
		c-0.3,1.5-1.6,2.7-3.7,2.7C266.1,48.2,264.6,46.3,264.6,43.9z M266.8,43h3.6c-0.1-1-0.8-1.8-1.7-1.8C267.5,41.3,267,41.9,266.8,43z
		"/>
	<path fill="#262626" d="M275.8,41.1L275.8,41.1c0.5-0.9,1.1-1.4,2.1-1.4c0.2,0,0.4,0,0.5,0.1v1.9h0c-1.4-0.1-2.4,0.6-2.4,2.3v4
		h-2.2v-8.2h2.1V41.1z"/>
	<path fill="#262626" d="M278.6,39.8h2.2l1.3,4.3c0.2,0.8,0.4,1.3,0.4,1.3h0c0,0,0.1-0.5,0.4-1.3l1.3-4.3h2.2l-2.9,8.2h-2.1
		L278.6,39.8z"/>
	<path fill="#262626" d="M287.2,36.6h2.2v2h-2.2V36.6z M287.2,39.8h2.2V48h-2.2V39.8z"/>
	<path fill="#262626" d="M290.4,43.9c0-2.4,1.6-4.3,4.1-4.3c2.1,0,3.4,1.2,3.7,3h-2.1c-0.1-0.7-0.7-1.3-1.5-1.3c-1.3,0-2,1-2,2.6
		c0,1.6,0.6,2.6,2,2.6c0.9,0,1.5-0.5,1.6-1.4h2.1c-0.1,1.7-1.5,3.1-3.7,3.1C292,48.2,290.4,46.4,290.4,43.9z"/>
	<path fill="#262626" d="M298.8,43.9c0-2.4,1.6-4.3,4-4.3c2.6,0,4,2,4,4.9h-6c0.2,1.3,0.9,2,2.1,2c0.8,0,1.3-0.4,1.6-1h2.1
		c-0.3,1.5-1.6,2.7-3.7,2.7C300.3,48.2,298.8,46.3,298.8,43.9z M301,43h3.6c-0.1-1-0.8-1.8-1.7-1.8C301.7,41.3,301.2,41.9,301,43z"
		/>
	<path fill="#262626" d="M307.4,45.4h2c0.1,0.9,0.8,1.4,1.8,1.4c1,0,1.5-0.4,1.5-0.9c0-0.8-1-0.9-2.2-1.1c-1.5-0.3-2.9-0.7-2.9-2.5
		c0-1.8,1.5-2.6,3.3-2.6c2.2,0,3.4,1.1,3.5,2.7h-2c-0.1-0.9-0.7-1.2-1.6-1.2c-0.8,0-1.4,0.3-1.4,0.9c0,0.7,1.1,0.8,2.3,1
		c1.4,0.3,2.9,0.7,2.9,2.6c0,1.6-1.4,2.6-3.5,2.6C308.9,48.2,307.5,47.1,307.4,45.4z"/>
</g>
<g>
	<path fill="#FFFFFF" d="M10.8,275.2H6.7V272c2.5-0.1,4.6-1.3,5.1-3.9h3.8v19.3h-4.7V275.2z"/>
	<path fill="#FFFFFF" d="M26.9,283.2H18v-4.3l8.9-10.8h4.6v11.5h2.8v3.6h-2.8v4.3h-4.6V283.2z M26.9,279.6V273h-0.1l-5.3,6.5v0.1
		H26.9z"/>
	<path fill="#FFFFFF" d="M35.6,282.7h4.8v4.7h-4.8V282.7z"/>
	<path fill="#FFFFFF" d="M41.8,282c0-2.2,1.3-3.9,3.3-4.8v-0.1c-1.7-0.8-2.5-2.1-2.5-3.9c0-3.2,2.8-5.3,7.2-5.3c4.5,0,7.2,2,7.2,5.3
		c0,1.7-1,3-2.5,3.8v0.1c2.1,0.8,3.3,2.6,3.3,4.8c0,3.8-3.2,6-8,6C45.1,287.9,41.8,285.6,41.8,282z M53.2,281.7
		c0-1.7-1.3-2.9-3.3-2.9c-2,0-3.4,1.1-3.4,2.9c0,1.7,1.3,2.7,3.3,2.7C51.8,284.4,53.2,283.3,53.2,281.7z M52.7,273.5
		c0-1.4-1.1-2.3-2.9-2.3c-1.8,0-2.8,1-2.8,2.3s1.1,2.4,2.8,2.4C51.6,275.8,52.7,274.8,52.7,273.5z"/>
	<path fill="#FFFFFF" d="M58.9,273.5c0-3.4,2.2-5.6,5.1-5.6c3,0,5.1,2.2,5.1,5.6c0,3.4-2.2,5.6-5.1,5.6
		C61.1,279.1,58.9,276.9,58.9,273.5z M65.7,273.5c0-1.9-0.5-3.2-1.7-3.2c-1.2,0-1.7,1.4-1.7,3.2c0,1.8,0.5,3.2,1.7,3.2
		C65.2,276.6,65.7,275.4,65.7,273.5z M74.4,268.2H77l-10.4,19.2H64L74.4,268.2z M71.9,282.3c0-3.4,2.2-5.6,5.1-5.6
		c3.1,0,5.2,2.2,5.2,5.6s-2.2,5.6-5.2,5.6C74,287.9,71.9,285.7,71.9,282.3z M78.7,282.3c0-1.8-0.5-3.2-1.7-3.2
		c-1.2,0-1.7,1.3-1.7,3.2s0.5,3.2,1.7,3.2C78.2,285.5,78.7,284.2,78.7,282.3z"/>
	<path fill="#262626" d="M6.3,294h9.2v2h-3.4v9.5H9.7V296H6.3V294z"/>
	<path fill="#262626" d="M16.1,301.3c0-2.4,1.6-4.3,4-4.3c2.6,0,4,2,4,4.9h-6c0.2,1.3,0.9,2,2.1,2c0.8,0,1.3-0.4,1.6-1h2.1
		c-0.3,1.5-1.6,2.7-3.7,2.7C17.6,305.7,16.1,303.8,16.1,301.3z M18.3,300.5h3.6c-0.1-1-0.8-1.8-1.7-1.8
		C19,298.7,18.4,299.4,18.3,300.5z"/>
	<path fill="#262626" d="M24.8,301.4c0-2.4,1.6-4.3,4.1-4.3c2.1,0,3.4,1.2,3.7,3h-2.1c-0.1-0.7-0.7-1.3-1.5-1.3c-1.3,0-2,1-2,2.6
		c0,1.6,0.6,2.6,2,2.6c0.9,0,1.5-0.5,1.6-1.4h2.1c-0.1,1.7-1.5,3.1-3.7,3.1C26.4,305.7,24.8,303.8,24.8,301.4z"/>
	<path fill="#262626" d="M35.8,298.3L35.8,298.3c0.6-0.9,1.3-1.3,2.4-1.3c1.7,0,2.8,1.3,2.8,3.1v5.4h-2.2v-5c0-0.9-0.5-1.5-1.4-1.5
		c-1,0-1.7,0.8-1.7,1.9v4.7h-2.2V294h2.2V298.3z"/>
	<path fill="#262626" d="M44.5,298.4L44.5,298.4c0.6-0.9,1.4-1.3,2.5-1.3c1.7,0,2.8,1.3,2.8,3.1v5.4h-2.2v-5c0-0.9-0.5-1.5-1.4-1.5
		c-1,0-1.7,0.8-1.7,1.9v4.7h-2.2v-8.2h2.1V298.4z"/>
	<path fill="#262626" d="M50.8,301.4c0-2.4,1.7-4.3,4.3-4.3s4.3,1.9,4.3,4.3s-1.7,4.3-4.3,4.3S50.8,303.8,50.8,301.4z M57.2,301.4
		c0-1.6-0.8-2.7-2.1-2.7c-1.3,0-2.1,1.1-2.1,2.7s0.7,2.7,2.1,2.7C56.4,304,57.2,303,57.2,301.4z"/>
	<path fill="#262626" d="M60.4,294h2.2v11.4h-2.2V294z"/>
	<path fill="#262626" d="M63.6,301.4c0-2.4,1.7-4.3,4.3-4.3s4.3,1.9,4.3,4.3s-1.7,4.3-4.3,4.3S63.6,303.8,63.6,301.4z M70,301.4
		c0-1.6-0.8-2.7-2.1-2.7c-1.3,0-2.1,1.1-2.1,2.7s0.7,2.7,2.1,2.7C69.2,304,70,303,70,301.4z"/>
	<path fill="#262626" d="M73,305.7h2.2c0.2,0.5,0.6,0.9,1.6,0.9c1.2,0,1.8-0.6,1.8-1.7V304h0c-0.5,0.5-1.1,1-2.1,1
		c-1.8,0-3.6-1.4-3.6-3.9c0-2.4,1.5-4,3.6-4c1,0,1.8,0.4,2.3,1.1h0v-0.9h2.1v7.6c0,1.2-0.4,1.9-1,2.5c-0.7,0.6-1.7,0.9-3,0.9
		C74.6,308.3,73.2,307.3,73,305.7z M78.7,301c0-1.2-0.6-2.2-2-2.2c-1.1,0-1.8,0.9-1.8,2.2c0,1.4,0.7,2.2,1.9,2.2
		C78.2,303.2,78.7,302.2,78.7,301z"/>
	<path fill="#262626" d="M82.4,306.4h0.8c0.9,0,1.2-0.4,1.2-1.1c0-0.4-0.2-1-0.6-2.2l-2.2-5.8h2.3l1.2,3.7c0.3,0.8,0.5,1.8,0.5,1.8
		h0c0,0,0.2-1,0.5-1.8l1.2-3.7h2.2l-2.9,8.4c-0.6,1.8-1.2,2.5-2.9,2.5h-1.3V306.4z"/>
</g>
<g>
	<path fill="#FFFFFF" d="M245,282c0-2.2,1.3-3.9,3.3-4.8v-0.1c-1.7-0.8-2.5-2.1-2.5-3.9c0-3.2,2.8-5.3,7.2-5.3c4.5,0,7.2,2,7.2,5.3
		c0,1.7-1,3-2.5,3.8v0.1c2.1,0.8,3.3,2.6,3.3,4.8c0,3.8-3.2,6-8,6C248.3,287.9,245,285.6,245,282z M256.3,281.7
		c0-1.7-1.3-2.9-3.3-2.9c-2,0-3.4,1.1-3.4,2.9c0,1.7,1.3,2.7,3.3,2.7C255,284.4,256.3,283.3,256.3,281.7z M255.9,273.5
		c0-1.4-1.1-2.3-2.9-2.3c-1.8,0-2.8,1-2.8,2.3s1.1,2.4,2.8,2.4C254.8,275.8,255.9,274.8,255.9,273.5z"/>
	<path fill="#FFFFFF" d="M262.5,282.7h4.8v4.7h-4.8V282.7z"/>
	<path fill="#FFFFFF" d="M277.7,283.2h-8.9v-4.3l8.9-10.8h4.6v11.5h2.8v3.6h-2.8v4.3h-4.6V283.2z M277.7,279.6V273h-0.1l-5.3,6.5
		v0.1H277.7z"/>
	<path fill="#FFFFFF" d="M286.1,273.5c0-3.4,2.2-5.6,5.1-5.6c3,0,5.1,2.2,5.1,5.6c0,3.4-2.2,5.6-5.1,5.6
		C288.2,279.1,286.1,276.9,286.1,273.5z M292.9,273.5c0-1.9-0.5-3.2-1.7-3.2c-1.2,0-1.7,1.4-1.7,3.2c0,1.8,0.5,3.2,1.7,3.2
		C292.4,276.6,292.9,275.4,292.9,273.5z M301.5,268.2h2.6l-10.4,19.2h-2.6L301.5,268.2z M299,282.3c0-3.4,2.2-5.6,5.1-5.6
		c3.1,0,5.2,2.2,5.2,5.6s-2.2,5.6-5.2,5.6C301.2,287.9,299,285.7,299,282.3z M305.8,282.3c0-1.8-0.5-3.2-1.7-3.2
		c-1.2,0-1.7,1.3-1.7,3.2s0.5,3.2,1.7,3.2C305.3,285.5,305.8,284.2,305.8,282.3z"/>
	<path fill="#262626" d="M245.4,294h3.3l1.6,5.7c0.4,1.4,0.7,3.1,0.7,3.1h0c0,0,0.3-1.6,0.7-3.1l1.6-5.7h3.3v11.4h-2.2v-6.6
		c0-0.9,0.1-2.4,0.1-2.4h0c0,0-0.3,1.3-0.5,2.2l-2,6.8h-2.2l-1.9-6.8c-0.2-0.8-0.5-2.2-0.5-2.2h0c0,0,0.1,1.4,0.1,2.4v6.6h-2.1V294z
		"/>
	<path fill="#262626" d="M263.1,304.5L263.1,304.5c-0.4,0.6-1,1.1-2.4,1.1c-1.7,0-2.9-0.9-2.9-2.5c0-1.8,1.5-2.4,3.3-2.6
		c1.4-0.2,2-0.3,2-0.9c0-0.6-0.5-1-1.4-1c-1,0-1.5,0.4-1.6,1.2h-1.9c0.1-1.4,1.1-2.7,3.5-2.7c2.5,0,3.5,1.1,3.5,3v4.2
		c0,0.6,0.1,1,0.3,1.1v0.1h-2.1C263.3,305.3,263.2,304.9,263.1,304.5z M263.2,302.6v-1.2c-0.4,0.2-1,0.4-1.5,0.5
		c-1.1,0.3-1.7,0.5-1.7,1.3c0,0.8,0.5,1,1.3,1C262.5,304.1,263.2,303.4,263.2,302.6z"/>
	<path fill="#262626" d="M268.7,298.4L268.7,298.4c0.6-0.9,1.4-1.3,2.5-1.3c1.7,0,2.8,1.3,2.8,3.1v5.4h-2.2v-5
		c0-0.9-0.5-1.5-1.4-1.5c-1,0-1.7,0.8-1.7,1.9v4.7h-2.2v-8.2h2.1V298.4z"/>
	<path fill="#262626" d="M280.6,305.5v-1h0c-0.6,0.8-1.2,1.2-2.4,1.2c-1.8,0-2.8-1.2-2.8-3v-5.5h2.2v5.1c0,1,0.4,1.5,1.4,1.5
		c1,0,1.6-0.8,1.6-1.9v-4.7h2.2v8.2H280.6z"/>
	<path fill="#262626" d="M283.6,297.2h1.1v-0.7c0-2,1.6-2.7,3.6-2.5v1.7c-1,0-1.5,0.1-1.5,0.9v0.6h1.5v1.5h-1.5v6.7h-2.2v-6.7h-1.1
		V297.2z"/>
	<path fill="#262626" d="M294.3,304.5L294.3,304.5c-0.4,0.6-1,1.1-2.4,1.1c-1.7,0-2.9-0.9-2.9-2.5c0-1.8,1.5-2.4,3.3-2.6
		c1.4-0.2,2-0.3,2-0.9c0-0.6-0.5-1-1.4-1c-1,0-1.5,0.4-1.6,1.2h-1.9c0.1-1.4,1.1-2.7,3.5-2.7c2.5,0,3.5,1.1,3.5,3v4.2
		c0,0.6,0.1,1,0.3,1.1v0.1h-2.1C294.4,305.3,294.3,304.9,294.3,304.5z M294.3,302.6v-1.2c-0.4,0.2-1,0.4-1.5,0.5
		c-1.1,0.3-1.7,0.5-1.7,1.3c0,0.8,0.5,1,1.3,1C293.6,304.1,294.3,303.4,294.3,302.6z"/>
	<path fill="#262626" d="M297.3,301.4c0-2.4,1.6-4.3,4.1-4.3c2.1,0,3.4,1.2,3.7,3H303c-0.1-0.7-0.7-1.3-1.5-1.3c-1.3,0-2,1-2,2.6
		c0,1.6,0.6,2.6,2,2.6c0.9,0,1.5-0.5,1.6-1.4h2.1c-0.1,1.7-1.5,3.1-3.7,3.1C298.9,305.7,297.3,303.8,297.3,301.4z"/>
	<path fill="#262626" d="M305.7,297.2h1.1v-2.6h2.1v2.6h1.4v1.4h-1.4v4.4c0,0.6,0.3,0.8,0.8,0.8c0.3,0,0.6,0,0.6,0v1.6
		c0,0-0.5,0-1.4,0c-1.1,0-2.2-0.4-2.2-2v-4.8h-1.1V297.2z"/>
	<path fill="#262626" d="M316.6,305.5v-1h0c-0.6,0.8-1.2,1.2-2.4,1.2c-1.8,0-2.8-1.2-2.8-3v-5.5h2.2v5.1c0,1,0.4,1.5,1.4,1.5
		c1,0,1.6-0.8,1.6-1.9v-4.7h2.2v8.2H316.6z"/>
	<path fill="#262626" d="M322.2,298.6L322.2,298.6c0.5-0.9,1.1-1.4,2.1-1.4c0.2,0,0.4,0,0.5,0.1v1.9h0c-1.4-0.1-2.4,0.6-2.4,2.3v4
		h-2.2v-8.2h2.1V298.6z"/>
	<path fill="#262626" d="M325.8,294h2.2v2h-2.2V294z M325.8,297.2h2.2v8.2h-2.2V297.2z"/>
	<path fill="#262626" d="M331.5,298.4L331.5,298.4c0.6-0.9,1.4-1.3,2.5-1.3c1.7,0,2.8,1.3,2.8,3.1v5.4h-2.2v-5
		c0-0.9-0.5-1.5-1.4-1.5c-1,0-1.7,0.8-1.7,1.9v4.7h-2.2v-8.2h2.1V298.4z"/>
	<path fill="#262626" d="M337.9,305.7h2.2c0.2,0.5,0.6,0.9,1.6,0.9c1.2,0,1.8-0.6,1.8-1.7V304h0c-0.5,0.5-1.1,1-2.1,1
		c-1.8,0-3.6-1.4-3.6-3.9c0-2.4,1.5-4,3.6-4c1,0,1.8,0.4,2.3,1.1h0v-0.9h2.1v7.6c0,1.2-0.4,1.9-1,2.5c-0.7,0.6-1.7,0.9-3,0.9
		C339.5,308.3,338.1,307.3,337.9,305.7z M343.6,301c0-1.2-0.6-2.2-2-2.2c-1.1,0-1.8,0.9-1.8,2.2c0,1.4,0.7,2.2,1.9,2.2
		C343.1,303.2,343.6,302.2,343.6,301z"/>
</g>
<g>
	<path fill="#FFFFFF" d="M216.7,421.8c0-3.1,0.7-5.8,2.3-7.7c1.4-1.6,3.3-2.5,6.1-2.5c4,0,6.5,2,7.1,5.1h-4.5c-0.3-1-1-1.8-2.5-1.8
		c-2.4,0-3.6,1.8-3.8,4.8h0.1c1-1.1,2.3-1.8,4.4-1.8c3.7,0,6.9,2.7,6.9,6.8c0,4.1-3.2,6.8-7.6,6.8
		C219.5,431.6,216.7,427.5,216.7,421.8z M228.2,424.8c0-1.9-1.4-3.4-3.3-3.4c-2,0-3.3,1.4-3.3,3.4c0,1.9,1.4,3.3,3.3,3.3
		C226.9,428.1,228.2,426.7,228.2,424.8z"/>
	<path fill="#FFFFFF" d="M234.2,426.5h4.8v4.7h-4.8V426.5z"/>
	<path fill="#FFFFFF" d="M249.4,426.9h-8.9v-4.3l8.9-10.8h4.6v11.5h2.8v3.6H254v4.3h-4.6V426.9z M249.4,423.4v-6.6h-0.1l-5.3,6.5
		v0.1H249.4z"/>
	<path fill="#FFFFFF" d="M257.8,417.2c0-3.4,2.2-5.6,5.1-5.6c3,0,5.1,2.2,5.1,5.6c0,3.4-2.2,5.6-5.1,5.6
		C260,422.8,257.8,420.6,257.8,417.2z M264.6,417.2c0-1.9-0.5-3.2-1.7-3.2c-1.2,0-1.7,1.4-1.7,3.2c0,1.8,0.5,3.2,1.7,3.2
		C264.1,420.4,264.6,419.1,264.6,417.2z M273.2,412h2.6l-10.4,19.2h-2.6L273.2,412z M270.7,426c0-3.4,2.2-5.6,5.1-5.6
		c3.1,0,5.2,2.2,5.2,5.6s-2.2,5.6-5.2,5.6C272.9,431.7,270.7,429.5,270.7,426z M277.6,426c0-1.8-0.5-3.2-1.7-3.2
		c-1.2,0-1.7,1.3-1.7,3.2s0.5,3.2,1.7,3.2C277,429.2,277.6,427.9,277.6,426z"/>
	<path fill="#262626" d="M216.9,437.7h2.3v4.5h4.5v-4.5h2.3v11.4h-2.3v-5h-4.5v5h-2.3V437.7z"/>
	<path fill="#262626" d="M227.2,445.1c0-2.4,1.6-4.3,4-4.3c2.6,0,4,2,4,4.9h-6c0.2,1.3,0.9,2,2.1,2c0.8,0,1.3-0.4,1.6-1h2.1
		c-0.3,1.5-1.6,2.7-3.7,2.7C228.7,449.4,227.2,447.5,227.2,445.1z M229.4,444.2h3.6c-0.1-1-0.8-1.8-1.7-1.8
		C230.1,442.4,229.5,443.1,229.4,444.2z"/>
	<path fill="#262626" d="M241.2,448.3L241.2,448.3c-0.4,0.6-1,1.1-2.4,1.1c-1.7,0-2.9-0.9-2.9-2.5c0-1.8,1.5-2.4,3.3-2.6
		c1.4-0.2,2-0.3,2-0.9c0-0.6-0.5-1-1.4-1c-1,0-1.5,0.4-1.6,1.2h-1.9c0.1-1.4,1.1-2.7,3.5-2.7c2.5,0,3.5,1.1,3.5,3v4.2
		c0,0.6,0.1,1,0.3,1.1v0.1h-2.1C241.3,449,241.2,448.6,241.2,448.3z M241.2,446.3v-1.2c-0.4,0.2-1,0.4-1.5,0.5
		c-1.1,0.3-1.7,0.5-1.7,1.3s0.5,1,1.3,1C240.5,447.9,241.2,447.1,241.2,446.3z"/>
	<path fill="#262626" d="M244.7,437.7h2.2v11.4h-2.2V437.7z"/>
	<path fill="#262626" d="M247.8,441h1.1v-2.6h2.1v2.6h1.4v1.4h-1.4v4.4c0,0.6,0.3,0.8,0.8,0.8c0.3,0,0.6,0,0.6,0v1.6
		c0,0-0.5,0-1.4,0c-1.1,0-2.2-0.4-2.2-2v-4.8h-1.1V441z"/>
	<path fill="#262626" d="M255.8,442.1L255.8,442.1c0.6-0.9,1.3-1.3,2.4-1.3c1.7,0,2.8,1.3,2.8,3.1v5.4h-2.2v-5
		c0-0.9-0.5-1.5-1.4-1.5c-1,0-1.7,0.8-1.7,1.9v4.7h-2.2v-11.4h2.2V442.1z"/>
	<path fill="#262626" d="M263.9,445.1c0-2.4,1.6-4.3,4.1-4.3c2.1,0,3.4,1.2,3.7,3h-2.1c-0.1-0.7-0.7-1.3-1.5-1.3c-1.3,0-2,1-2,2.6
		c0,1.6,0.6,2.6,2,2.6c0.9,0,1.5-0.5,1.6-1.4h2.1c-0.1,1.7-1.5,3.1-3.7,3.1C265.5,449.4,263.9,447.5,263.9,445.1z"/>
	<path fill="#262626" d="M277.7,448.3L277.7,448.3c-0.4,0.6-1,1.1-2.4,1.1c-1.7,0-2.9-0.9-2.9-2.5c0-1.8,1.5-2.4,3.3-2.6
		c1.4-0.2,2-0.3,2-0.9c0-0.6-0.5-1-1.4-1c-1,0-1.5,0.4-1.6,1.2h-1.9c0.1-1.4,1.1-2.7,3.5-2.7c2.5,0,3.5,1.1,3.5,3v4.2
		c0,0.6,0.1,1,0.3,1.1v0.1h-2.1C277.8,449,277.7,448.6,277.7,448.3z M277.7,446.3v-1.2c-0.4,0.2-1,0.4-1.5,0.5
		c-1.1,0.3-1.7,0.5-1.7,1.3s0.5,1,1.3,1C277,447.9,277.7,447.1,277.7,446.3z"/>
	<path fill="#262626" d="M283.2,442.3L283.2,442.3c0.5-0.9,1.1-1.4,2.1-1.4c0.2,0,0.4,0,0.5,0.1v1.9h0c-1.4-0.1-2.4,0.6-2.4,2.3v4
		h-2.2V441h2.1V442.3z"/>
	<path fill="#262626" d="M286.3,445.1c0-2.4,1.6-4.3,4-4.3c2.6,0,4,2,4,4.9h-6c0.2,1.3,0.9,2,2.1,2c0.8,0,1.3-0.4,1.6-1h2.1
		c-0.3,1.5-1.6,2.7-3.7,2.7C287.9,449.4,286.3,447.5,286.3,445.1z M288.5,444.2h3.6c-0.1-1-0.8-1.8-1.7-1.8
		C289.2,442.4,288.7,443.1,288.5,444.2z"/>
</g>
<g>
	<path fill="#FFFFFF" d="M6.5,425.7c0-2.2,1.3-3.9,3.3-4.8v-0.1c-1.7-0.8-2.5-2.1-2.5-3.9c0-3.2,2.8-5.3,7.2-5.3
		c4.5,0,7.2,2,7.2,5.3c0,1.7-1,3-2.5,3.8v0.1c2.1,0.8,3.3,2.6,3.3,4.8c0,3.8-3.2,6-8,6C9.8,431.6,6.5,429.3,6.5,425.7z M17.8,425.4
		c0-1.7-1.3-2.9-3.3-2.9c-2,0-3.4,1.1-3.4,2.9c0,1.7,1.3,2.7,3.3,2.7C16.5,428.1,17.8,427,17.8,425.4z M17.4,417.2
		c0-1.4-1.1-2.3-2.9-2.3c-1.8,0-2.8,1-2.8,2.3s1.1,2.4,2.8,2.4C16.3,419.5,17.4,418.6,17.4,417.2z"/>
	<path fill="#FFFFFF" d="M23.9,426.5h4.8v4.7h-4.8V426.5z"/>
	<path fill="#FFFFFF" d="M33.6,424.5c1.7-1.5,4-2.9,5.5-4.2c0.8-0.7,1.3-1.4,1.3-2.4c0-1.5-0.9-2.5-2.5-2.5c-0.9,0-1.6,0.3-2.1,0.9
		c-0.6,0.6-0.8,1.5-0.9,2.8h-4.4c0-2.2,0.4-3.6,1.3-4.9c1.1-1.6,3.2-2.6,6.2-2.6c4.6,0,7.1,2.7,7.1,6.1c0,2.7-1.5,4.2-3.2,5.5
		c-1.7,1.4-3.8,2.6-5.1,4v0h8.3v3.9H30.2C30.3,428,31.7,426.1,33.6,424.5z"/>
	<path fill="#FFFFFF" d="M46.5,417.2c0-3.4,2.2-5.6,5.1-5.6c3,0,5.1,2.2,5.1,5.6c0,3.4-2.2,5.6-5.1,5.6
		C48.6,422.8,46.5,420.6,46.5,417.2z M53.3,417.2c0-1.9-0.5-3.2-1.7-3.2c-1.2,0-1.7,1.4-1.7,3.2c0,1.8,0.5,3.2,1.7,3.2
		C52.8,420.4,53.3,419.1,53.3,417.2z M61.9,412h2.6l-10.4,19.2h-2.6L61.9,412z M59.4,426c0-3.4,2.2-5.6,5.1-5.6
		c3.1,0,5.2,2.2,5.2,5.6s-2.2,5.6-5.2,5.6C61.6,431.7,59.4,429.5,59.4,426z M66.2,426c0-1.8-0.5-3.2-1.7-3.2c-1.2,0-1.7,1.3-1.7,3.2
		s0.5,3.2,1.7,3.2C65.7,429.2,66.2,427.9,66.2,426z"/>
	<path fill="#262626" d="M6.4,443.5c0-3.4,2.1-6,5.5-6c2.8,0,4.5,1.7,4.7,3.9h-2.3c-0.2-1.2-1.1-1.9-2.4-1.9c-2.1,0-3.1,1.8-3.1,4
		c0,2.3,1.2,4,3.1,4c1.4,0,2.3-0.8,2.5-2h2.3c-0.1,1-0.5,2-1.3,2.7c-0.8,0.7-1.9,1.2-3.5,1.2C8.7,449.4,6.4,447,6.4,443.5z"/>
	<path fill="#262626" d="M17.2,445.1c0-2.4,1.7-4.3,4.3-4.3s4.3,1.9,4.3,4.3s-1.7,4.3-4.3,4.3S17.2,447.5,17.2,445.1z M23.6,445.1
		c0-1.6-0.8-2.7-2.1-2.7c-1.3,0-2.1,1.1-2.1,2.7s0.7,2.7,2.1,2.7C22.9,447.8,23.6,446.7,23.6,445.1z"/>
	<path fill="#262626" d="M29,442.1L29,442.1c0.6-0.9,1.4-1.3,2.5-1.3c1.7,0,2.8,1.3,2.8,3.1v5.4h-2.2v-5c0-0.9-0.5-1.5-1.4-1.5
		c-1,0-1.7,0.8-1.7,1.9v4.7h-2.2V441H29V442.1z"/>
	<path fill="#262626" d="M35.1,446.5h2c0.1,0.9,0.8,1.4,1.8,1.4c1,0,1.5-0.4,1.5-0.9c0-0.8-1-0.9-2.2-1.1c-1.5-0.3-2.9-0.7-2.9-2.5
		c0-1.8,1.5-2.6,3.3-2.6c2.2,0,3.4,1.1,3.5,2.7h-2c-0.1-0.9-0.7-1.2-1.6-1.2c-0.8,0-1.4,0.3-1.4,0.9c0,0.7,1.1,0.8,2.3,1
		c1.4,0.3,2.9,0.7,2.9,2.6c0,1.6-1.4,2.6-3.5,2.6C36.6,449.4,35.2,448.3,35.1,446.5z"/>
	<path fill="#262626" d="M48.6,449.2v-1h0c-0.6,0.8-1.2,1.2-2.4,1.2c-1.8,0-2.8-1.2-2.8-3V441h2.2v5.1c0,1,0.4,1.5,1.4,1.5
		c1,0,1.6-0.8,1.6-1.9V441h2.2v8.2H48.6z"/>
	<path fill="#262626" d="M52.1,441h2.1v1.1h0c0.4-0.8,1.2-1.3,2.4-1.3c1,0,1.9,0.6,2.3,1.4h0c0.6-0.9,1.4-1.4,2.5-1.4
		c1.7,0,2.7,1.1,2.7,2.9v5.5h-2.2V444c0-0.9-0.5-1.4-1.3-1.4c-0.9,0-1.5,0.7-1.5,1.8v4.8H57V444c0-0.9-0.5-1.4-1.3-1.4
		c-0.9,0-1.5,0.7-1.5,1.8v4.8h-2.2V441z"/>
	<path fill="#262626" d="M65,445.1c0-2.4,1.6-4.3,4-4.3c2.6,0,4,2,4,4.9h-6c0.2,1.3,0.9,2,2.1,2c0.8,0,1.3-0.4,1.6-1H73
		c-0.3,1.5-1.6,2.7-3.7,2.7C66.5,449.4,65,447.5,65,445.1z M67.2,444.2h3.6c-0.1-1-0.8-1.8-1.7-1.8
		C67.9,442.4,67.4,443.1,67.2,444.2z"/>
	<path fill="#262626" d="M76.2,442.3L76.2,442.3c0.5-0.9,1.1-1.4,2.1-1.4c0.2,0,0.4,0,0.5,0.1v1.9h0c-1.4-0.1-2.4,0.6-2.4,2.3v4
		h-2.2V441h2.1V442.3z"/>
	<path fill="#262626" d="M81.6,441h2.1v1h0c0.5-0.7,1.3-1.2,2.4-1.2c2.2,0,3.6,1.8,3.6,4.3c0,2.7-1.4,4.3-3.6,4.3
		c-1.2,0-1.9-0.5-2.4-1.2h0v3.6h-2.2V441z M87.6,445.2c0-1.6-0.5-2.6-1.9-2.6c-1.4,0-1.9,1.2-1.9,2.6c0,1.5,0.7,2.5,2,2.5
		C86.9,447.6,87.6,446.7,87.6,445.2z"/>
	<path fill="#262626" d="M92.9,442.3L92.9,442.3c0.5-0.9,1.1-1.4,2.1-1.4c0.2,0,0.4,0,0.5,0.1v1.9h0c-1.4-0.1-2.4,0.6-2.4,2.3v4
		h-2.2V441h2.1V442.3z"/>
	<path fill="#262626" d="M96,445.1c0-2.4,1.7-4.3,4.3-4.3s4.3,1.9,4.3,4.3s-1.7,4.3-4.3,4.3S96,447.5,96,445.1z M102.4,445.1
		c0-1.6-0.8-2.7-2.1-2.7c-1.3,0-2.1,1.1-2.1,2.7s0.7,2.7,2.1,2.7C101.6,447.8,102.4,446.7,102.4,445.1z"/>
	<path fill="#262626" d="M105.2,445.1c0-2.6,1.5-4.3,3.5-4.3c1.2,0,1.9,0.5,2.3,1.2h0v-4.2h2.2v11.4h-2.1v-1.1h0
		c-0.5,0.8-1.3,1.3-2.4,1.3C106.6,449.4,105.2,447.8,105.2,445.1z M111.1,445.1c0-1.6-0.5-2.6-1.9-2.6c-1.2,0-1.8,1.1-1.8,2.6
		c0,1.6,0.6,2.5,1.7,2.5C110.4,447.6,111.1,446.6,111.1,445.1z"/>
	<path fill="#262626" d="M119.8,449.2v-1h0c-0.6,0.8-1.2,1.2-2.4,1.2c-1.8,0-2.8-1.2-2.8-3V441h2.2v5.1c0,1,0.4,1.5,1.4,1.5
		c1,0,1.6-0.8,1.6-1.9V441h2.2v8.2H119.8z"/>
	<path fill="#262626" d="M122.9,445.1c0-2.4,1.6-4.3,4.1-4.3c2.1,0,3.4,1.2,3.7,3h-2.1c-0.1-0.7-0.7-1.3-1.5-1.3c-1.3,0-2,1-2,2.6
		c0,1.6,0.6,2.6,2,2.6c0.9,0,1.5-0.5,1.6-1.4h2.1c-0.1,1.7-1.5,3.1-3.7,3.1C124.5,449.4,122.9,447.5,122.9,445.1z"/>
	<path fill="#262626" d="M131.3,441h1.1v-2.6h2.1v2.6h1.4v1.4h-1.4v4.4c0,0.6,0.3,0.8,0.8,0.8c0.3,0,0.6,0,0.6,0v1.6
		c0,0-0.5,0-1.4,0c-1.1,0-2.2-0.4-2.2-2v-4.8h-1.1V441z"/>
	<path fill="#262626" d="M136.6,446.5h2c0.1,0.9,0.8,1.4,1.8,1.4c1,0,1.5-0.4,1.5-0.9c0-0.8-1-0.9-2.2-1.1c-1.5-0.3-2.9-0.7-2.9-2.5
		c0-1.8,1.5-2.6,3.3-2.6c2.2,0,3.4,1.1,3.5,2.7h-2c-0.1-0.9-0.7-1.2-1.6-1.2c-0.8,0-1.4,0.3-1.4,0.9c0,0.7,1.1,0.8,2.3,1
		c1.4,0.3,2.9,0.7,2.9,2.6c0,1.6-1.4,2.6-3.5,2.6C138,449.4,136.7,448.3,136.6,446.5z"/>
</g>
<g>
	<path fill="#FFFFFF" d="M265.2,520.2c-1.4-1.2-2.1-3-2.1-5.2h4.5c0.1,2,1.1,3.5,3.5,3.5c1.9,0,3-1.1,3-2.7c0-1.7-1.2-2.5-3.3-2.5
		h-1.1V510h1c1.8,0,3-0.8,3-2.2c0-1.3-0.9-2.2-2.5-2.2c-2,0-2.9,1.3-3.1,2.9h-4.4c0.1-3.8,2.7-6.5,7.5-6.5c4.2,0,7.1,2,7.1,5.4
		c0,2-1.2,3.2-2.9,3.8v0.1c2.1,0.6,3.5,2.1,3.5,4.7c0,4.1-3.6,6-7.6,6C268.5,522.1,266.5,521.5,265.2,520.2z"/>
	<path fill="#FFFFFF" d="M280.4,516.9h4.8v4.7h-4.8V516.9z"/>
	<path fill="#FFFFFF" d="M286.4,515.9h4.6c0.3,1.6,1.7,2.4,3.4,2.4c1.9,0,3.1-1.3,3.1-3.3c0-2-1.3-3.2-3.1-3.2
		c-1.2,0-2.2,0.5-2.7,1.2h-4.4l2-10.6h11.9v3.8h-8.5l-0.7,3.4h0.1c0.7-0.6,2-1.1,3.7-1.1c3.7,0,6.6,2.5,6.6,6.6c0,4.3-3.2,7-7.8,7
		C290.1,522.1,286.8,520,286.4,515.9z"/>
	<path fill="#FFFFFF" d="M303.5,507.7c0-3.4,2.2-5.6,5.1-5.6c3,0,5.1,2.2,5.1,5.6c0,3.4-2.2,5.6-5.1,5.6
		C305.7,513.3,303.5,511.1,303.5,507.7z M310.3,507.7c0-1.9-0.5-3.2-1.7-3.2c-1.2,0-1.7,1.4-1.7,3.2c0,1.8,0.5,3.2,1.7,3.2
		C309.8,510.8,310.3,509.6,310.3,507.7z M318.9,502.4h2.6l-10.4,19.2h-2.6L318.9,502.4z M316.4,516.5c0-3.4,2.2-5.6,5.1-5.6
		c3.1,0,5.2,2.2,5.2,5.6s-2.2,5.6-5.2,5.6C318.6,522.1,316.4,519.9,316.4,516.5z M323.2,516.5c0-1.8-0.5-3.2-1.7-3.2
		c-1.2,0-1.7,1.3-1.7,3.2s0.5,3.2,1.7,3.2C322.7,519.7,323.2,518.4,323.2,516.5z"/>
	<path fill="#262626" d="M263,528.2h9.2v2h-3.4v9.5h-2.3v-9.5H263V528.2z"/>
	<path fill="#262626" d="M275.3,532.7L275.3,532.7c0.5-0.9,1.1-1.4,2.1-1.4c0.2,0,0.4,0,0.5,0.1v1.9h0c-1.4-0.1-2.4,0.6-2.4,2.3v4
		h-2.2v-8.2h2.1V532.7z"/>
	<path fill="#262626" d="M283.7,538.7L283.7,538.7c-0.4,0.6-1,1.1-2.4,1.1c-1.7,0-2.9-0.9-2.9-2.5c0-1.8,1.5-2.4,3.3-2.6
		c1.4-0.2,2-0.3,2-0.9c0-0.6-0.5-1-1.4-1c-1,0-1.5,0.4-1.6,1.2h-1.9c0.1-1.4,1.1-2.7,3.5-2.7c2.5,0,3.5,1.1,3.5,3v4.2
		c0,0.6,0.1,1,0.3,1.1v0.1h-2.1C283.8,539.5,283.7,539.1,283.7,538.7z M283.7,536.8v-1.2c-0.4,0.2-1,0.4-1.5,0.5
		c-1.1,0.3-1.7,0.5-1.7,1.3s0.5,1,1.3,1C283,538.3,283.7,537.6,283.7,536.8z"/>
	<path fill="#262626" d="M289.3,532.6L289.3,532.6c0.6-0.9,1.4-1.3,2.5-1.3c1.7,0,2.8,1.3,2.8,3.1v5.4h-2.2v-5
		c0-0.9-0.5-1.5-1.4-1.5c-1,0-1.7,0.8-1.7,1.9v4.7h-2.2v-8.2h2.1V532.6z"/>
	<path fill="#262626" d="M295.4,537h2c0.1,0.9,0.8,1.4,1.8,1.4c1,0,1.5-0.4,1.5-0.9c0-0.8-1-0.9-2.2-1.1c-1.5-0.3-2.9-0.7-2.9-2.5
		c0-1.8,1.5-2.6,3.3-2.6c2.2,0,3.4,1.1,3.5,2.7h-2c-0.1-0.9-0.7-1.2-1.6-1.2c-0.8,0-1.4,0.3-1.4,0.9c0,0.7,1.1,0.8,2.3,1
		c1.4,0.3,2.9,0.7,2.9,2.6c0,1.6-1.4,2.6-3.5,2.6C296.9,539.9,295.5,538.7,295.4,537z"/>
	<path fill="#262626" d="M303.7,531.4h2.1v1h0c0.5-0.7,1.3-1.2,2.4-1.2c2.2,0,3.6,1.8,3.6,4.3c0,2.7-1.4,4.3-3.6,4.3
		c-1.2,0-1.9-0.5-2.4-1.2h0v3.6h-2.2V531.4z M309.6,535.6c0-1.6-0.5-2.6-1.9-2.6c-1.4,0-1.9,1.2-1.9,2.6c0,1.5,0.7,2.5,2,2.5
		C308.9,538.1,309.6,537.2,309.6,535.6z"/>
	<path fill="#262626" d="M312.4,535.5c0-2.4,1.7-4.3,4.3-4.3s4.3,1.9,4.3,4.3s-1.7,4.3-4.3,4.3S312.4,538,312.4,535.5z M318.8,535.5
		c0-1.6-0.8-2.7-2.1-2.7c-1.3,0-2.1,1.1-2.1,2.7s0.7,2.7,2.1,2.7C318,538.2,318.8,537.2,318.8,535.5z"/>
	<path fill="#262626" d="M324.1,532.7L324.1,532.7c0.5-0.9,1.1-1.4,2.1-1.4c0.2,0,0.4,0,0.5,0.1v1.9h0c-1.4-0.1-2.4,0.6-2.4,2.3v4
		H322v-8.2h2.1V532.7z"/>
	<path fill="#262626" d="M327.1,531.4h1.1v-2.6h2.1v2.6h1.4v1.4h-1.4v4.4c0,0.6,0.3,0.8,0.8,0.8c0.3,0,0.6,0,0.6,0v1.6
		c0,0-0.5,0-1.4,0c-1.1,0-2.2-0.4-2.2-2v-4.8h-1.1V531.4z"/>
	<path fill="#262626" d="M337.8,538.7L337.8,538.7c-0.4,0.6-1,1.1-2.4,1.1c-1.7,0-2.9-0.9-2.9-2.5c0-1.8,1.5-2.4,3.3-2.6
		c1.4-0.2,2-0.3,2-0.9c0-0.6-0.5-1-1.4-1c-1,0-1.5,0.4-1.6,1.2h-1.9c0.1-1.4,1.1-2.7,3.5-2.7c2.5,0,3.5,1.1,3.5,3v4.2
		c0,0.6,0.1,1,0.3,1.1v0.1h-2.1C338,539.5,337.9,539.1,337.8,538.7z M337.9,536.8v-1.2c-0.4,0.2-1,0.4-1.5,0.5
		c-1.1,0.3-1.7,0.5-1.7,1.3s0.5,1,1.3,1C337.2,538.3,337.9,537.6,337.9,536.8z"/>
	<path fill="#262626" d="M340.8,531.4h1.1v-2.6h2.1v2.6h1.4v1.4h-1.4v4.4c0,0.6,0.3,0.8,0.8,0.8c0.3,0,0.6,0,0.6,0v1.6
		c0,0-0.5,0-1.4,0c-1.1,0-2.2-0.4-2.2-2v-4.8h-1.1V531.4z"/>
	<path fill="#262626" d="M346.6,528.2h2.2v2h-2.2V528.2z M346.6,531.4h2.2v8.2h-2.2V531.4z"/>
	<path fill="#262626" d="M349.8,535.5c0-2.4,1.7-4.3,4.3-4.3s4.3,1.9,4.3,4.3s-1.7,4.3-4.3,4.3S349.8,538,349.8,535.5z M356.1,535.5
		c0-1.6-0.8-2.7-2.1-2.7c-1.3,0-2.1,1.1-2.1,2.7s0.7,2.7,2.1,2.7C355.4,538.2,356.1,537.2,356.1,535.5z"/>
	<path fill="#262626" d="M361.5,532.6L361.5,532.6c0.6-0.9,1.4-1.3,2.5-1.3c1.7,0,2.8,1.3,2.8,3.1v5.4h-2.2v-5
		c0-0.9-0.5-1.5-1.4-1.5c-1,0-1.7,0.8-1.7,1.9v4.7h-2.2v-8.2h2.1V532.6z"/>
</g>
<g>
	<path fill="#FFFFFF" d="M125.7,520.2c-1.4-1.2-2.1-3-2.1-5.2h4.5c0.1,2,1.1,3.5,3.5,3.5c1.9,0,3-1.1,3-2.7c0-1.7-1.2-2.5-3.3-2.5
		h-1.1V510h1c1.8,0,3-0.8,3-2.2c0-1.3-0.9-2.2-2.5-2.2c-2,0-2.9,1.3-3.1,2.9h-4.4c0.1-3.8,2.7-6.5,7.5-6.5c4.2,0,7.1,2,7.1,5.4
		c0,2-1.2,3.2-2.9,3.8v0.1c2.1,0.6,3.5,2.1,3.5,4.7c0,4.1-3.6,6-7.6,6C129,522.1,127,521.5,125.7,520.2z"/>
	<path fill="#FFFFFF" d="M140.9,516.9h4.8v4.7h-4.8V516.9z"/>
	<path fill="#FFFFFF" d="M147.1,516.2c0-2.2,1.3-3.9,3.3-4.8v-0.1c-1.7-0.8-2.5-2.1-2.5-3.9c0-3.2,2.8-5.3,7.2-5.3
		c4.5,0,7.2,2,7.2,5.3c0,1.7-1,3-2.5,3.8v0.1c2.1,0.8,3.3,2.6,3.3,4.8c0,3.8-3.2,6-8,6C150.3,522.1,147.1,519.8,147.1,516.2z
		 M158.4,515.9c0-1.7-1.3-2.9-3.3-2.9c-2,0-3.4,1.1-3.4,2.9c0,1.7,1.3,2.7,3.3,2.7C157,518.6,158.4,517.5,158.4,515.9z M157.9,507.6
		c0-1.4-1.1-2.3-2.9-2.3c-1.8,0-2.8,1-2.8,2.3s1.1,2.4,2.8,2.4C156.8,510,157.9,509,157.9,507.6z"/>
	<path fill="#FFFFFF" d="M164.1,507.7c0-3.4,2.2-5.6,5.1-5.6c3,0,5.1,2.2,5.1,5.6c0,3.4-2.2,5.6-5.1,5.6
		C166.3,513.3,164.1,511.1,164.1,507.7z M171,507.7c0-1.9-0.5-3.2-1.7-3.2c-1.2,0-1.7,1.4-1.7,3.2c0,1.8,0.5,3.2,1.7,3.2
		C170.4,510.8,171,509.6,171,507.7z M179.6,502.4h2.6l-10.4,19.2h-2.6L179.6,502.4z M177.1,516.5c0-3.4,2.2-5.6,5.1-5.6
		c3.1,0,5.2,2.2,5.2,5.6s-2.2,5.6-5.2,5.6C179.3,522.1,177.1,519.9,177.1,516.5z M183.9,516.5c0-1.8-0.5-3.2-1.7-3.2
		c-1.2,0-1.7,1.3-1.7,3.2s0.5,3.2,1.7,3.2C183.4,519.7,183.9,518.4,183.9,516.5z"/>
	<path fill="#262626" d="M128.4,535.2h-1.9v4.4h-2.4v-11.4h5c1.3,0,2.3,0.4,3,1.1c0.6,0.7,1,1.5,1,2.5c0,1.6-0.8,2.7-2.3,3.2
		l2.9,4.7H131L128.4,535.2z M126.5,533.3h2.4c1.2,0,1.9-0.6,1.9-1.6c0-1-0.7-1.6-1.8-1.6h-2.4V533.3z"/>
	<path fill="#262626" d="M134,535.5c0-2.4,1.6-4.3,4-4.3c2.6,0,4,2,4,4.9h-6c0.2,1.3,0.9,2,2.1,2c0.8,0,1.3-0.4,1.6-1h2.1
		c-0.3,1.5-1.6,2.7-3.7,2.7C135.5,539.9,134,538,134,535.5z M136.1,534.7h3.6c-0.1-1-0.8-1.8-1.7-1.8
		C136.9,532.9,136.3,533.6,136.1,534.7z"/>
	<path fill="#262626" d="M142.6,531.4h1.1v-2.6h2.1v2.6h1.4v1.4h-1.4v4.4c0,0.6,0.3,0.8,0.8,0.8c0.3,0,0.6,0,0.6,0v1.6
		c0,0-0.5,0-1.4,0c-1.1,0-2.2-0.4-2.2-2v-4.8h-1.1V531.4z"/>
	<path fill="#262626" d="M153.3,538.7L153.3,538.7c-0.4,0.6-1,1.1-2.4,1.1c-1.7,0-2.9-0.9-2.9-2.5c0-1.8,1.5-2.4,3.3-2.6
		c1.4-0.2,2-0.3,2-0.9c0-0.6-0.5-1-1.4-1c-1,0-1.5,0.4-1.6,1.2h-1.9c0.1-1.4,1.1-2.7,3.5-2.7c2.5,0,3.5,1.1,3.5,3v4.2
		c0,0.6,0.1,1,0.3,1.1v0.1h-2.1C153.4,539.5,153.3,539.1,153.3,538.7z M153.3,536.8v-1.2c-0.4,0.2-1,0.4-1.5,0.5
		c-1.1,0.3-1.7,0.5-1.7,1.3s0.5,1,1.3,1C152.6,538.3,153.3,537.6,153.3,536.8z"/>
	<path fill="#262626" d="M156.7,528.2h2.2v2h-2.2V528.2z M156.7,531.4h2.2v8.2h-2.2V531.4z"/>
	<path fill="#262626" d="M160.4,528.2h2.2v11.4h-2.2V528.2z"/>
</g>
<g>
	<path fill="#FFFFFF" d="M6.7,512.2c0-3.1,0.7-5.8,2.3-7.7c1.4-1.6,3.3-2.5,6.1-2.5c4,0,6.5,2,7.1,5.1h-4.5c-0.3-1-1-1.8-2.5-1.8
		c-2.4,0-3.6,1.8-3.8,4.8h0.1c1-1.1,2.3-1.8,4.4-1.8c3.7,0,6.9,2.7,6.9,6.8c0,4.1-3.2,6.8-7.6,6.8C9.5,522.1,6.7,517.9,6.7,512.2z
		 M18.3,515.3c0-1.9-1.4-3.4-3.3-3.4c-2,0-3.3,1.4-3.3,3.4c0,1.9,1.4,3.3,3.3,3.3C16.9,518.6,18.3,517.2,18.3,515.3z"/>
	<path fill="#FFFFFF" d="M24.2,516.9H29v4.7h-4.8V516.9z"/>
	<path fill="#FFFFFF" d="M32.4,520.2c-1.4-1.2-2.1-3-2.1-5.2h4.5c0.1,2,1.1,3.5,3.5,3.5c1.9,0,3-1.1,3-2.7c0-1.7-1.2-2.5-3.3-2.5
		h-1.1V510h1c1.8,0,3-0.8,3-2.2c0-1.3-0.9-2.2-2.5-2.2c-2,0-2.9,1.3-3.1,2.9h-4.4c0.1-3.8,2.7-6.5,7.5-6.5c4.2,0,7.1,2,7.1,5.4
		c0,2-1.2,3.2-2.9,3.8v0.1c2.1,0.6,3.5,2.1,3.5,4.7c0,4.1-3.6,6-7.6,6C35.7,522.1,33.7,521.5,32.4,520.2z"/>
	<path fill="#FFFFFF" d="M47.2,507.7c0-3.4,2.2-5.6,5.1-5.6c3,0,5.1,2.2,5.1,5.6c0,3.4-2.2,5.6-5.1,5.6
		C49.4,513.3,47.2,511.1,47.2,507.7z M54,507.7c0-1.9-0.5-3.2-1.7-3.2c-1.2,0-1.7,1.4-1.7,3.2c0,1.8,0.5,3.2,1.7,3.2
		C53.5,510.8,54,509.6,54,507.7z M62.7,502.4h2.6l-10.4,19.2h-2.6L62.7,502.4z M60.2,516.5c0-3.4,2.2-5.6,5.1-5.6
		c3.1,0,5.2,2.2,5.2,5.6s-2.2,5.6-5.2,5.6C62.3,522.1,60.2,519.9,60.2,516.5z M67,516.5c0-1.8-0.5-3.2-1.7-3.2
		c-1.2,0-1.7,1.3-1.7,3.2s0.5,3.2,1.7,3.2C66.5,519.7,67,518.4,67,516.5z"/>
	<path fill="#262626" d="M6.9,528.2h8.4v2H9.2v2.6h5.3v1.9H9.2v3.1h6.1v1.9H6.9V528.2z"/>
	<path fill="#262626" d="M18.7,532.6L18.7,532.6c0.6-0.9,1.4-1.3,2.5-1.3c1.7,0,2.8,1.3,2.8,3.1v5.4h-2.2v-5c0-0.9-0.5-1.5-1.4-1.5
		c-1,0-1.7,0.8-1.7,1.9v4.7h-2.2v-8.2h2.1V532.6z"/>
	<path fill="#262626" d="M25,535.5c0-2.4,1.6-4.3,4-4.3c2.6,0,4,2,4,4.9h-6c0.2,1.3,0.9,2,2.1,2c0.8,0,1.3-0.4,1.6-1H33
		c-0.3,1.5-1.6,2.7-3.7,2.7C26.5,539.9,25,538,25,535.5z M27.2,534.7h3.6c-0.1-1-0.8-1.8-1.7-1.8C27.9,532.9,27.4,533.6,27.2,534.7z
		"/>
	<path fill="#262626" d="M36.2,532.7L36.2,532.7c0.5-0.9,1.1-1.4,2.1-1.4c0.2,0,0.4,0,0.5,0.1v1.9h0c-1.4-0.1-2.4,0.6-2.4,2.3v4
		h-2.2v-8.2h2.1V532.7z"/>
	<path fill="#262626" d="M39.5,539.9h2.2c0.2,0.5,0.6,0.9,1.6,0.9c1.2,0,1.8-0.6,1.8-1.7v-0.9h0c-0.5,0.5-1.1,1-2.1,1
		c-1.8,0-3.6-1.4-3.6-3.9c0-2.4,1.5-4,3.6-4c1,0,1.8,0.4,2.3,1.1h0v-0.9h2.1v7.6c0,1.2-0.4,1.9-1,2.5c-0.7,0.6-1.7,0.9-3,0.9
		C41.1,542.4,39.7,541.5,39.5,539.9z M45.2,535.2c0-1.2-0.6-2.2-2-2.2c-1.1,0-1.8,0.9-1.8,2.2c0,1.4,0.7,2.2,1.9,2.2
		C44.7,537.4,45.2,536.4,45.2,535.2z"/>
	<path fill="#262626" d="M48.8,540.6h0.8c0.9,0,1.2-0.4,1.2-1.1c0-0.4-0.2-1-0.6-2.2l-2.2-5.8h2.3l1.2,3.7c0.3,0.8,0.5,1.8,0.5,1.8
		h0c0,0,0.2-1,0.5-1.8l1.2-3.7h2.2l-2.9,8.4c-0.6,1.8-1.2,2.5-2.9,2.5h-1.3V540.6z"/>
</g>
<g>
	<path fill="#FFFFFF" d="M125.7,583.3c-1.4-1.2-2.1-3-2.1-5.2h4.5c0.1,2,1.1,3.5,3.5,3.5c1.9,0,3-1.1,3-2.7c0-1.7-1.2-2.5-3.3-2.5
		h-1.1v-3.3h1c1.8,0,3-0.8,3-2.2c0-1.3-0.9-2.2-2.5-2.2c-2,0-2.9,1.3-3.1,2.9h-4.4c0.1-3.8,2.7-6.5,7.5-6.5c4.2,0,7.1,2,7.1,5.4
		c0,2-1.2,3.2-2.9,3.8v0.1c2.1,0.6,3.5,2.1,3.5,4.7c0,4.1-3.6,6-7.6,6C129,585.2,127,584.6,125.7,583.3z"/>
	<path fill="#FFFFFF" d="M140.9,580h4.8v4.7h-4.8V580z"/>
	<path fill="#FFFFFF" d="M156.3,569.6L156.3,569.6l-9.2-0.1v-4h14.2v3.6c-3.4,3.4-6.4,9-6.6,15.5h-4.9
		C149.9,577.8,153.5,572.4,156.3,569.6z"/>
	<path fill="#FFFFFF" d="M162.4,570.8c0-3.4,2.2-5.6,5.1-5.6c3,0,5.1,2.2,5.1,5.6c0,3.4-2.2,5.6-5.1,5.6
		C164.5,576.4,162.4,574.2,162.4,570.8z M169.2,570.8c0-1.9-0.5-3.2-1.7-3.2c-1.2,0-1.7,1.4-1.7,3.2c0,1.8,0.5,3.2,1.7,3.2
		C168.7,573.9,169.2,572.7,169.2,570.8z M177.8,565.5h2.6l-10.4,19.2h-2.6L177.8,565.5z M175.3,579.6c0-3.4,2.2-5.6,5.1-5.6
		c3.1,0,5.2,2.2,5.2,5.6s-2.2,5.6-5.2,5.6C177.5,585.2,175.3,583,175.3,579.6z M182.1,579.6c0-1.8-0.5-3.2-1.7-3.2
		c-1.2,0-1.7,1.3-1.7,3.2s0.5,3.2,1.7,3.2C181.6,582.8,182.1,581.5,182.1,579.6z"/>
	<path fill="#262626" d="M124.1,591.3h5c1.3,0,2.3,0.4,3,1.1c0.6,0.7,1,1.6,1,2.6c0,2.2-1.4,3.6-3.8,3.6h-2.8v4.1h-2.4V591.3z
		 M126.5,596.7h2.4c1.2,0,1.9-0.7,1.9-1.7c0-1.1-0.7-1.7-1.8-1.7h-2.4V596.7z"/>
	<path fill="#262626" d="M136.3,595.6L136.3,595.6c0.6-0.9,1.3-1.3,2.4-1.3c1.7,0,2.8,1.3,2.8,3.1v5.4h-2.2v-5
		c0-0.9-0.5-1.5-1.4-1.5c-1,0-1.7,0.8-1.7,1.9v4.7h-2.2v-11.4h2.2V595.6z"/>
	<path fill="#262626" d="M147.8,601.8L147.8,601.8c-0.4,0.6-1,1.1-2.4,1.1c-1.7,0-2.9-0.9-2.9-2.5c0-1.8,1.5-2.4,3.3-2.6
		c1.4-0.2,2-0.3,2-0.9c0-0.6-0.5-1-1.4-1c-1,0-1.5,0.4-1.6,1.2h-1.9c0.1-1.4,1.1-2.7,3.5-2.7c2.5,0,3.5,1.1,3.5,3v4.2
		c0,0.6,0.1,1,0.3,1.1v0.1H148C147.9,602.6,147.8,602.2,147.8,601.8z M147.8,599.9v-1.2c-0.4,0.2-1,0.4-1.5,0.5
		c-1.1,0.3-1.7,0.5-1.7,1.3s0.5,1,1.3,1C147.1,601.4,147.8,600.7,147.8,599.9z"/>
	<path fill="#262626" d="M153.3,595.9L153.3,595.9c0.5-0.9,1.1-1.4,2.1-1.4c0.2,0,0.4,0,0.5,0.1v1.9h0c-1.4-0.1-2.4,0.6-2.4,2.3v4
		h-2.2v-8.2h2.1V595.9z"/>
	<path fill="#262626" d="M156.8,594.5h2.1v1.1h0c0.4-0.8,1.2-1.3,2.4-1.3c1,0,1.9,0.6,2.3,1.4h0c0.6-0.9,1.4-1.4,2.5-1.4
		c1.7,0,2.7,1.1,2.7,2.9v5.5h-2.2v-5.2c0-0.9-0.5-1.4-1.3-1.4c-0.9,0-1.5,0.7-1.5,1.8v4.8h-2.2v-5.2c0-0.9-0.5-1.4-1.3-1.4
		c-0.9,0-1.5,0.7-1.5,1.8v4.8h-2.2V594.5z"/>
	<path fill="#262626" d="M175.1,601.8L175.1,601.8c-0.4,0.6-1,1.1-2.4,1.1c-1.7,0-2.9-0.9-2.9-2.5c0-1.8,1.5-2.4,3.3-2.6
		c1.4-0.2,2-0.3,2-0.9c0-0.6-0.5-1-1.4-1c-1,0-1.5,0.4-1.6,1.2h-1.9c0.1-1.4,1.1-2.7,3.5-2.7c2.5,0,3.5,1.1,3.5,3v4.2
		c0,0.6,0.1,1,0.3,1.1v0.1h-2.1C175.2,602.6,175.1,602.2,175.1,601.8z M175.1,599.9v-1.2c-0.4,0.2-1,0.4-1.5,0.5
		c-1.1,0.3-1.7,0.5-1.7,1.3s0.5,1,1.3,1C174.4,601.4,175.1,600.7,175.1,599.9z"/>
	<path fill="#262626" d="M178.1,598.7c0-2.4,1.6-4.3,4.1-4.3c2.1,0,3.4,1.2,3.7,3h-2.1c-0.1-0.7-0.7-1.3-1.5-1.3c-1.3,0-2,1-2,2.6
		c0,1.6,0.6,2.6,2,2.6c0.9,0,1.5-0.5,1.6-1.4h2.1c-0.1,1.7-1.5,3.1-3.7,3.1C179.7,603,178.1,601.1,178.1,598.7z"/>
	<path fill="#262626" d="M186.6,598.6c0-2.4,1.6-4.3,4-4.3c2.6,0,4,2,4,4.9h-6c0.2,1.3,0.9,2,2.1,2c0.8,0,1.3-0.4,1.6-1h2.1
		c-0.3,1.5-1.6,2.7-3.7,2.7C188.1,603,186.6,601.1,186.6,598.6z M188.8,597.8h3.6c-0.1-1-0.8-1.8-1.7-1.8
		C189.5,596,188.9,596.7,188.8,597.8z"/>
	<path fill="#262626" d="M200.9,602.7v-1h0c-0.6,0.8-1.2,1.2-2.4,1.2c-1.8,0-2.8-1.2-2.8-3v-5.5h2.2v5.1c0,1,0.4,1.5,1.4,1.5
		c1,0,1.6-0.8,1.6-1.9v-4.7h2.2v8.2H200.9z"/>
	<path fill="#262626" d="M203.9,594.5h1.1V592h2.1v2.6h1.4v1.4h-1.4v4.4c0,0.6,0.3,0.8,0.8,0.8c0.3,0,0.6,0,0.6,0v1.6
		c0,0-0.5,0-1.4,0c-1.1,0-2.2-0.4-2.2-2V596h-1.1V594.5z"/>
	<path fill="#262626" d="M209.7,591.3h2.2v2h-2.2V591.3z M209.7,594.5h2.2v8.2h-2.2V594.5z"/>
	<path fill="#262626" d="M212.9,598.7c0-2.4,1.6-4.3,4.1-4.3c2.1,0,3.4,1.2,3.7,3h-2.1c-0.1-0.7-0.7-1.3-1.5-1.3c-1.3,0-2,1-2,2.6
		c0,1.6,0.6,2.6,2,2.6c0.9,0,1.5-0.5,1.6-1.4h2.1c-0.1,1.7-1.5,3.1-3.7,3.1C214.5,603,212.9,601.1,212.9,598.7z"/>
	<path fill="#262626" d="M226.6,601.8L226.6,601.8c-0.4,0.6-1,1.1-2.4,1.1c-1.7,0-2.9-0.9-2.9-2.5c0-1.8,1.5-2.4,3.3-2.6
		c1.4-0.2,2-0.3,2-0.9c0-0.6-0.5-1-1.4-1c-1,0-1.5,0.4-1.6,1.2h-1.9c0.1-1.4,1.1-2.7,3.5-2.7c2.5,0,3.5,1.1,3.5,3v4.2
		c0,0.6,0.1,1,0.3,1.1v0.1h-2.1C226.8,602.6,226.7,602.2,226.6,601.8z M226.6,599.9v-1.2c-0.4,0.2-1,0.4-1.5,0.5
		c-1.1,0.3-1.7,0.5-1.7,1.3s0.5,1,1.3,1C226,601.4,226.6,600.7,226.6,599.9z"/>
	<path fill="#262626" d="M230.1,591.3h2.2v11.4h-2.2V591.3z"/>
	<path fill="#262626" d="M233.2,600.1h2c0.1,0.9,0.8,1.4,1.8,1.4c1,0,1.5-0.4,1.5-0.9c0-0.8-1-0.9-2.2-1.1c-1.5-0.3-2.9-0.7-2.9-2.5
		c0-1.8,1.5-2.6,3.3-2.6c2.2,0,3.4,1.1,3.5,2.7h-2c-0.1-0.9-0.7-1.2-1.6-1.2c-0.8,0-1.4,0.3-1.4,0.9c0,0.7,1.1,0.8,2.3,1
		c1.4,0.3,2.9,0.7,2.9,2.6c0,1.6-1.4,2.6-3.5,2.6C234.7,603,233.3,601.8,233.2,600.1z"/>
</g>
<g>
	<rect x="257.2" y="561.4" fill="#00B9E7" width="117.2" height="55.3"/>
	<path fill="#FFFFFF" d="M375,617.3H256.7v-56.5H375V617.3z M257.8,616.2h116.1V562H257.8V616.2z"/>
</g>
<g>
	<path fill="#FFFFFF" d="M266.7,584.2c1.7-1.5,4-2.9,5.5-4.2c0.8-0.7,1.3-1.4,1.3-2.4c0-1.5-0.9-2.5-2.5-2.5c-0.9,0-1.6,0.3-2.1,0.9
		c-0.6,0.6-0.8,1.5-0.9,2.8h-4.4c0-2.2,0.4-3.6,1.3-4.9c1.1-1.6,3.2-2.6,6.2-2.6c4.6,0,7.1,2.7,7.1,6.1c0,2.7-1.5,4.2-3.2,5.5
		c-1.7,1.4-3.8,2.6-5.1,4v0h8.3v3.9h-14.9C263.4,587.6,264.8,585.8,266.7,584.2z"/>
	<path fill="#FFFFFF" d="M279.8,586.1h4.8v4.7h-4.8V586.1z"/>
	<path fill="#FFFFFF" d="M286.1,585.3c0-2.2,1.3-3.9,3.3-4.8v-0.1c-1.7-0.8-2.5-2.1-2.5-3.9c0-3.2,2.8-5.3,7.2-5.3
		c4.5,0,7.2,2,7.2,5.3c0,1.7-1,3-2.5,3.8v0.1c2.1,0.8,3.3,2.6,3.3,4.8c0,3.8-3.2,6-8,6C289.3,591.3,286.1,589,286.1,585.3z
		 M297.4,585c0-1.7-1.3-2.9-3.3-2.9c-2,0-3.4,1.1-3.4,2.9c0,1.7,1.3,2.7,3.3,2.7C296,587.8,297.4,586.7,297.4,585z M296.9,576.8
		c0-1.4-1.1-2.3-2.9-2.3c-1.8,0-2.8,1-2.8,2.3s1.1,2.4,2.8,2.4C295.8,579.2,296.9,578.2,296.9,576.8z"/>
	<path fill="#FFFFFF" d="M303.1,576.9c0-3.4,2.2-5.6,5.1-5.6c3,0,5.1,2.2,5.1,5.6c0,3.4-2.2,5.6-5.1,5.6
		C305.3,582.5,303.1,580.3,303.1,576.9z M309.9,576.9c0-1.9-0.5-3.2-1.7-3.2c-1.2,0-1.7,1.4-1.7,3.2c0,1.8,0.5,3.2,1.7,3.2
		C309.4,580,309.9,578.7,309.9,576.9z M318.6,571.6h2.6l-10.4,19.2h-2.6L318.6,571.6z M316.1,585.7c0-3.4,2.2-5.6,5.1-5.6
		c3.1,0,5.2,2.2,5.2,5.6s-2.2,5.6-5.2,5.6C318.3,591.3,316.1,589.1,316.1,585.7z M322.9,585.7c0-1.8-0.5-3.2-1.7-3.2
		c-1.2,0-1.7,1.3-1.7,3.2s0.5,3.2,1.7,3.2C322.4,588.9,322.9,587.6,322.9,585.7z"/>
	<path fill="#262626" d="M263.1,603.2c0-3.4,2.1-6,5.5-6c2.8,0,4.5,1.7,4.7,3.9H271c-0.2-1.2-1.1-1.9-2.4-1.9c-2.1,0-3.1,1.8-3.1,4
		c0,2.3,1.2,4,3.1,4c1.4,0,2.3-0.8,2.5-2h2.3c-0.1,1-0.5,2-1.3,2.7c-0.8,0.7-1.9,1.2-3.5,1.2C265.4,609.1,263.1,606.6,263.1,603.2z"
		/>
	<path fill="#262626" d="M276.5,601.7L276.5,601.7c0.6-0.9,1.3-1.3,2.4-1.3c1.7,0,2.8,1.3,2.8,3.1v5.4h-2.2v-5
		c0-0.9-0.5-1.5-1.4-1.5c-1,0-1.7,0.8-1.7,1.9v4.7h-2.2v-11.4h2.2V601.7z"/>
	<path fill="#262626" d="M282.7,604.7c0-2.4,1.6-4.3,4-4.3c2.6,0,4,2,4,4.9h-6c0.2,1.3,0.9,2,2.1,2c0.8,0,1.3-0.4,1.6-1h2.1
		c-0.3,1.5-1.6,2.7-3.7,2.7C284.3,609.1,282.7,607.2,282.7,604.7z M284.9,603.8h3.6c-0.1-1-0.8-1.8-1.7-1.8
		C285.6,602.1,285.1,602.8,284.9,603.8z"/>
	<path fill="#262626" d="M291.8,600.6h2.1v1.1h0c0.4-0.8,1.2-1.3,2.4-1.3c1,0,1.9,0.6,2.3,1.4h0c0.6-0.9,1.4-1.4,2.5-1.4
		c1.7,0,2.7,1.1,2.7,2.9v5.5h-2.2v-5.2c0-0.9-0.5-1.4-1.3-1.4c-0.9,0-1.5,0.7-1.5,1.8v4.8h-2.2v-5.2c0-0.9-0.5-1.4-1.3-1.4
		c-0.9,0-1.5,0.7-1.5,1.8v4.8h-2.2V600.6z"/>
	<path fill="#262626" d="M305.2,597.4h2.2v2h-2.2V597.4z M305.2,600.6h2.2v8.2h-2.2V600.6z"/>
	<path fill="#262626" d="M308.3,604.7c0-2.4,1.6-4.3,4.1-4.3c2.1,0,3.4,1.2,3.7,3H314c-0.1-0.7-0.7-1.3-1.5-1.3c-1.3,0-2,1-2,2.6
		c0,1.6,0.6,2.6,2,2.6c0.9,0,1.5-0.5,1.6-1.4h2.1c-0.1,1.7-1.5,3.1-3.7,3.1C310,609.1,308.3,607.2,308.3,604.7z"/>
	<path fill="#262626" d="M322.1,607.9L322.1,607.9c-0.4,0.6-1,1.1-2.4,1.1c-1.7,0-2.9-0.9-2.9-2.5c0-1.8,1.5-2.4,3.3-2.6
		c1.4-0.2,2-0.3,2-0.9c0-0.6-0.5-1-1.4-1c-1,0-1.5,0.4-1.6,1.2h-1.9c0.1-1.4,1.1-2.7,3.5-2.7c2.5,0,3.5,1.1,3.5,3v4.2
		c0,0.6,0.1,1,0.3,1.1v0.1h-2.1C322.2,608.7,322.2,608.3,322.1,607.9z M322.1,605.9v-1.2c-0.4,0.2-1,0.4-1.5,0.5
		c-1.1,0.3-1.7,0.5-1.7,1.3s0.5,1,1.3,1C321.4,607.5,322.1,606.7,322.1,605.9z"/>
	<path fill="#262626" d="M325.6,597.4h2.2v11.4h-2.2V597.4z"/>
	<path fill="#262626" d="M328.7,606.2h2c0.1,0.9,0.8,1.4,1.8,1.4c1,0,1.5-0.4,1.5-0.9c0-0.8-1-0.9-2.2-1.1c-1.5-0.3-2.9-0.7-2.9-2.5
		c0-1.8,1.5-2.6,3.3-2.6c2.2,0,3.4,1.1,3.5,2.7h-2c-0.1-0.9-0.7-1.2-1.6-1.2c-0.8,0-1.4,0.3-1.4,0.9c0,0.7,1.1,0.8,2.3,1
		c1.4,0.3,2.9,0.7,2.9,2.6c0,1.6-1.4,2.6-3.5,2.6C330.1,609.1,328.8,607.9,328.7,606.2z"/>
</g>
<g>
</g>
<g>
</g>
<g>
</g>
<g>
</g>
<g>
</g>
<g>
</g>
</svg>
